<?xml version="1.0" standalone="no"?>
<!DOCTYPE svg PUBLIC "-//W3C//DTD SVG 1.1//EN" "http://www.w3.org/Graphics/SVG/1.1/DTD/svg11.dtd" >
<svg xmlns="http://www.w3.org/2000/svg" xmlns:xlink="http://www.w3.org/1999/xlink" version="1.1">
<metadata>
Created by FontForge 20190801 at Sat May  2 09:57:21 2015
 By www-data
Copyright (c) 2015 by Arwan Sutanto &#38; Locomotype. All rights reserved. http://locomotype.com
</metadata>
<defs>
<font id="jogjakartype" horiz-adv-x="514" >
  <font-face 
    font-family="jogjakartype"
    font-weight="400"
    font-stretch="normal"
    units-per-em="1000"
    panose-1="0 0 0 0 0 0 0 0 0 0"
    ascent="750"
    descent="-250"
    x-height="500"
    cap-height="718"
    bbox="-135 -130 1542.09 750"
    underline-thickness="50"
    underline-position="-100"
    unicode-range="U+000D-007A"
  />
<missing-glyph horiz-adv-x="300" 
 />
    <glyph glyph-name=".notdef" horiz-adv-x="300" 
 />
    <glyph glyph-name=".null" horiz-adv-x="0" 
 />
    <glyph glyph-name="nonmarkingreturn" unicode="&#xd;" horiz-adv-x="300" 
 />
    <glyph glyph-name="NULL" horiz-adv-x="0" 
 />
    <glyph glyph-name="NULL" horiz-adv-x="0" 
 />
    <glyph glyph-name="space" unicode=" " horiz-adv-x="300" 
 />
    <glyph glyph-name="exclam" unicode="!" horiz-adv-x="1361" 
d="M849 265q-17 -18 -38 -20.5t-39.5 6.5t-29.5 27.5t-8 42.5q-18 6 -29 19.5t-14.5 30t1 33.5t18.5 30q-11 18 -13.5 38t3.5 39t19 34.5t32 23.5q-3 18 4 34t19.5 27.5t29 16.5t33.5 2q6 15 16.5 25.5t24 15t28 3.5t28.5 -8q13 16 30 24.5t35 8.5t35.5 -8.5t30.5 -24.5
q28 15 56.5 4.5t39.5 -40.5q18 3 34.5 -2t29 -16.5t19.5 -27.5t4 -34q19 -9 32 -24t19 -34t3.5 -39t-13.5 -38q14 -13 18.5 -30t1 -33.5t-14.5 -30t-29 -19.5q3 -24 -8 -42t-29.5 -27t-40 -6.5t-37.5 19.5q-20 -15 -47.5 -20.5t-52.5 -0.5v-41q11 -1 21 -5.5t18 -11.5
q16 15 35.5 17t36.5 -5.5t28.5 -23.5t11.5 -38v-136h-407v136q0 22 11.5 38t29 23.5t37 5.5t35.5 -17q8 7 18 11.5t21 5.5v41q-25 -5 -51 1t-46 20zM211 265q-17 -17 -38 -19.5t-39.5 6.5t-29.5 27t-8 42q-18 6 -29 19.5t-14.5 30t1 33.5t18.5 30q-11 18 -13.5 38t3.5 39
t19 34t32 24q-3 18 4 34t19.5 27.5t29 16.5t33.5 2q6 15 16.5 25t24 15.5t28 4.5t28.5 -9q13 16 30 24.5t35 8.5t35.5 -8.5t30.5 -24.5q28 15 56.5 4.5t39.5 -40.5q18 3 34.5 -2t29 -16.5t19.5 -27.5t4 -34q19 -9 32 -24t19 -34t3.5 -39t-13.5 -38q14 -13 18.5 -30t1 -33.5
t-14.5 -30t-29 -19.5q3 -24 -8 -42t-29.5 -27t-40 -6.5t-38.5 19.5q-20 -15 -46.5 -20.5t-52.5 -0.5v-41q11 -1 21 -5.5t18 -11.5q16 15 35.5 17t36.5 -5.5t28.5 -23.5t11.5 -38v-136h-406v136q0 22 11.5 38t28.5 23.5t36.5 5.5t35.5 -17q8 7 18 11.5t21 5.5v41
q-25 -5 -51 1t-46 20zM350 365v-15h10.5t10.5 1v130q0 16 -1.5 33t-7.5 30t-17.5 21.5t-30.5 8.5q-15 0 -26 -7.5t-16.5 -18t-4.5 -21.5t10 -19q6 -6 17.5 -5.5t13.5 10.5q2 9 -4.5 12t-14.5 2q1 10 7 15t13.5 5.5t15 -3t12.5 -10.5q7 -10 6.5 -21t-6.5 -21t-16 -16.5
t-22 -7.5q-32 -2 -50 18t-18 49q0 25 13.5 43t33.5 26.5t43.5 7.5t43.5 -14t33.5 -39.5t13.5 -67.5v-45q13 11 28.5 16.5t32.5 3.5q-12 19 -11 39.5t12 38t30 28t45 10.5l18 -1q-2 6 -4.5 12t-7.5 10q-9 7 -26.5 8.5t-27.5 -3.5q0 19 -11 30.5t-25 15t-28 0.5t-21 -13
q-9 16 -24 24.5t-30.5 8.5t-30.5 -8.5t-24 -24.5q-7 10 -21 13t-28 -0.5t-25 -15t-11 -30.5q-11 5 -28 3.5t-26 -8.5q-13 -9 -12.5 -27t10.5 -31q-28 -3 -44.5 -19t-19.5 -36t8.5 -40t40.5 -31q11 -4 21.5 -2t19.5 11q8 8 9.5 18t-1.5 17.5t-10 11t-16 -2.5q-8 -5 -4 -13
t10 -13q-7 -5 -15 -5.5t-15 3.5t-11.5 12.5t-2.5 21.5t11 21t21 11t25 1t24 -10q19 -14 22.5 -35t-4.5 -40t-27 -32t-45 -11q-13 1 -31.5 6.5t-27.5 14.5q-9 -6 -10 -15.5t4 -18.5t15.5 -15t26.5 -5q-13 -20 -8 -35.5t17.5 -22.5t28 -3.5t24.5 23.5q22 -17 49 -27t57 3v75
q0 9 -7 13t-13 2q-9 -2 -11.5 -12.5t8.5 -19.5q-12 -7 -21 -4.5t-15.5 10t-9 17t-0.5 17.5q7 25 25.5 35t37.5 6.5t33.5 -19.5t14.5 -43zM988 365v-15h10.5t10.5 1v130q0 16 -1.5 33t-7.5 30t-18 21.5t-31 8.5q-14 0 -25 -7.5t-16.5 -18t-4.5 -21.5t10 -19q6 -6 17.5 -5.5
t13.5 10.5q2 9 -4.5 12t-14.5 2q1 10 7 15t13.5 5.5t15 -3t12.5 -10.5q7 -10 6.5 -21t-6.5 -21t-16 -16.5t-22 -7.5q-32 -2 -50 18t-18 49q0 25 13.5 43t33.5 26.5t43.5 7.5t43.5 -14t33.5 -39.5t13.5 -67.5v-45q26 25 61 20q-12 19 -11 39.5t12 38t30 28t45 10.5l18 -1
q-1 6 -4 12t-8 10q-9 7 -26.5 8.5t-27.5 -3.5q-1 19 -11.5 30.5t-24.5 15t-28 0.5t-21 -13q-9 16 -24 24.5t-30.5 8.5t-30.5 -8.5t-24 -24.5q-7 10 -21 13t-28 -0.5t-25 -15t-11 -30.5q-10 5 -27.5 3.5t-26.5 -8.5q-13 -9 -12.5 -27t10.5 -31q-28 -3 -44.5 -19t-19.5 -36
t8.5 -40t40.5 -31q23 -8 41 9q8 8 9.5 18t-1.5 17.5t-10 11t-16 -2.5q-8 -5 -4 -13t10 -13q-7 -5 -15 -5.5t-15 3.5t-11.5 12.5t-2.5 21.5t11 21t21 11t25 1t24 -10q19 -14 22.5 -35t-4.5 -40t-27 -32t-45 -11q-13 1 -32 6.5t-27 14.5q-9 -6 -10 -15.5t4 -18.5t15.5 -15
t26.5 -5q-13 -20 -8.5 -35.5t17 -22.5t28.5 -3.5t25 23.5q22 -17 49 -27t57 3v75q0 9 -7 13t-14 2q-8 -2 -10.5 -12.5t8.5 -19.5q-12 -7 -21 -4.5t-15.5 10t-9 17t-0.5 17.5q7 25 25.5 35t37.5 6.5t33.5 -19.5t14.5 -43zM1084 389q11 14 28 14t20 -21q-8 1 -14.5 -2
t-4.5 -12q1 -7 7.5 -9.5t14 -0.5t13.5 9t6 21q0 18 -15.5 29.5t-35 11t-36 -17t-17.5 -54.5v-68q17 -8 32.5 -8t29 4.5t25.5 12t22 15.5q9 -20 25 -24t28.5 3t17 22.5t-8.5 35.5q20 -1 31.5 8t14 21.5t-5.5 25.5t-27 21q17 12 22 27t3 32q-2 20 -15.5 36t-37.5 22
q-11 1 -22.5 0t-22 -5.5t-17 -12t-6.5 -19.5q0 -14 6 -22t13.5 -10t14.5 0.5t9 9.5q2 9 -5 12.5t-15 2.5q2 11 8 16t14 5t16 -4t14 -11q7 -11 6.5 -22.5t-7 -21.5t-17.5 -16.5t-24 -7.5q13 -16 16 -36.5t-3.5 -38.5t-22 -29.5t-39.5 -9.5q-12 1 -22.5 7.5t-16 16.5t-6 21
t6.5 21zM446 389q11 14 28 14t20 -21q-8 1 -14.5 -2t-4.5 -12q1 -7 7.5 -9.5t14 -0.5t13.5 9t6 21q0 18 -15.5 29.5t-35 11t-36 -17t-17.5 -54.5v-68q17 -8 32.5 -8t29 4.5t25.5 12t22 15.5q9 -20 25 -24t28 3t16.5 22.5t-8.5 35.5q21 -1 32.5 8t13.5 21.5t-6 25.5t-26 21
q17 12 21.5 27t3.5 32q-2 20 -15.5 36t-37.5 22q-11 1 -22.5 0t-21.5 -5.5t-17 -12t-7 -19.5q0 -14 6 -22t13.5 -10t14.5 0.5t9 9.5q2 9 -4.5 12.5t-14.5 2.5q1 11 7.5 16t14 5t15.5 -4t14 -11q7 -11 6.5 -22.5t-7 -21.5t-17.5 -16.5t-24 -7.5q13 -16 16 -36.5t-3.5 -38.5
t-22 -29.5t-39.5 -9.5q-12 1 -22 7.5t-16 16.5t-6.5 21t6.5 21zM315 160q-10 0 -17 -7t-7 -17v-92h47v93q0 10 -7 16.5t-16 6.5zM953 160q-10 0 -17 -7t-7 -17v-92h47v93q0 10 -7 16.5t-16 6.5zM496 160q-10 0 -17 -7t-7 -17v-92h47v92q0 10 -6.5 17t-16.5 7zM241 153
q-11 10 -26 4.5t-15 -21.5v-92h47v92q0 11 -6 17zM422 153q-11 10 -25.5 4.5t-14.5 -21.5v-92h47v92q0 10 -7 17zM878 153q-11 11 -25.5 5t-14.5 -22v-92h47v92q0 11 -7 17zM1060 153q-11 11 -25.5 5t-14.5 -22v-92h47v92q0 10 -7 17zM1134 160q-10 0 -16.5 -7t-6.5 -17v-92
h46v92q0 10 -6.5 17t-16.5 7zM999 315q-2 0 -4.5 0.5t-5.5 0.5v-124q3 -2 5 -3t4 -3l8 6v124q-2 -1 -7 -1zM361 315q-2 0 -4.5 0.5t-4.5 0.5v-124l8 -6l8 6v124q-2 -1 -7 -1z" />
    <glyph glyph-name="quotedbl" unicode="&#x22;" horiz-adv-x="453" 
 />
    <glyph glyph-name="numbersign" unicode="#" horiz-adv-x="1029" 
d="M863 254q40 -4 68 -27.5t40 -56t5.5 -68.5t-35.5 -65q-30 -30 -67.5 -35.5t-70.5 8t-55.5 44.5t-22.5 73q0 48 30 83t76 43v13q-28 0 -41.5 -0.5t-20 3.5t-11.5 14.5t-17 32.5h-79l-55 -97q-5 -9 -16 -9h-89q-11 0 -16 9l-58 101q-3 6 -10 6h-204l-38 -65
q-12 -20 -30.5 -28.5t-37 -7t-34 13t-21.5 31.5q-6 21 2.5 36.5t22.5 22.5t29 4.5t22 -17.5q3 -6 3.5 -14t-2.5 -14t-9.5 -8.5t-16.5 1.5q4 5 4.5 11.5t-7.5 9.5q-7 2 -12 -2.5t-6 -11.5t2.5 -15t13.5 -13q17 -8 30.5 2.5t21.5 27.5l34 58q7 14 23 14h86v163h-57
q-26 0 -43.5 12.5t-24.5 30t-4 36.5t18 32q17 16 42 14q12 -1 21.5 -7t14.5 -14.5t5.5 -19t-5.5 -19.5q-5 -5 -12 -8.5t-13.5 -3.5t-12 4t-6.5 14q7 0 13 2.5t4 10.5q-1 6 -7 8.5t-13 1t-12.5 -8t-5.5 -19.5q0 -14 12.5 -23.5t28.5 -9.5h558q15 0 24.5 6.5t13.5 15.5
t2.5 18.5t-8.5 15.5q-6 5 -16.5 4.5t-12.5 -9.5q-1 -8 5 -10.5t12 -2.5q-1 -11 -6.5 -15t-12.5 -3.5t-14 4t-11 8.5q-6 9 -5.5 19.5t6 19t15 14.5t20.5 7q22 2 37 -9t21 -28t1.5 -36t-20.5 -33q-10 -10 -23.5 -14.5t-27.5 -4.5h-70v-173h24t13 -3.5t9.5 -12.5t14.5 -28
q4 -6 18.5 -5.5t26.5 0.5q0 25 0.5 45.5t16.5 38.5q13 15 31 19.5t34.5 -0.5t28 -18t10.5 -33q-1 -11 -6.5 -19.5t-14 -14t-18 -6t-18.5 4.5q-5 3 -8.5 9.5t-4 12.5t3 11.5t14.5 7.5q-1 -6 1.5 -11.5t10.5 -4.5q5 1 7.5 7t1 12t-8 10.5t-18.5 4.5q-14 0 -22.5 -12t-8.5 -26
v-38h75q13 0 18 8q3 -5 4.5 -12.5t0 -14.5t-7 -12.5t-15.5 -5.5h-75v-12zM312 309q51 0 88.5 -27.5t54 -67.5t9.5 -86t-43 -82t-82 -43t-86 9.5t-67.5 54t-27.5 88.5q0 31 12 59t33 49t49 33.5t60 12.5zM688 525h-357v-163h104q11 0 16 -9l61 -106h46l1 151q0 26 13.5 38.5
t30.5 14t32 -7.5t18 -27q1 -5 -1 -13.5t-6.5 -15.5t-12.5 -9.5t-20 3.5q11 11 8 20.5t-8 12.5q-5 2 -11.5 -1.5t-6.5 -8.5v-133l41 72q6 10 20.5 9.5t31.5 -0.5v173zM429 173q-2 14 -7.5 27t-13.5 24l-52 -51h73zM294 111l-51 -52q11 -8 24 -13.5t27 -7.5v73zM331 198l51 52
q-11 8 -24 13.5t-27 7.5v-73zM196 136q2 -14 7.5 -27t13.5 -24l52 51h-73zM331 38q14 2 26.5 7.5t23.5 13.5l-50 51v-72zM294 271q-14 -2 -26.5 -7.5t-23.5 -13.5l50 -51v72zM217 223q-8 -11 -13.5 -23.5t-7.5 -26.5h72zM408 86q17 23 21 50h-72zM941 145q-5 21 -15 34
l-31 -30q1 -1 1 -4h45zM926 75q11 16 14 34h-44q0 -2 -1 -4zM866 173h2l31 31q-14 10 -33 13v-44zM866 37q16 3 33 13l-31 31h-2v-44zM829 83l-30 -30q15 -10 30 -14v44zM829 215q-15 -4 -30 -14l30 -30v44zM774 175q-8 -15 -11 -30h41zM763 109q2 -14 11 -29l30 29h-41z
" />
    <glyph glyph-name="dollar" unicode="$" horiz-adv-x="554" 
d="M258 0h-88q-20 0 -37 16.5t-17 36.5v124l-45 51q-19 21 -20 48.5t13 51.5l213 350l14 -22l199 -328q14 -24 13 -51.5t-20 -48.5l-45 -50v-125q0 -10 -4.5 -19.5t-12 -17t-17.5 -12t-20 -4.5h-93v-94q0 -7 0.5 -12t4.5 -10q-17 -11 -27.5 -5t-10.5 18v103zM277 617
l-147 -242q-2 -6 4.5 -18.5t17.5 -14.5q8 -2 21 3t18 11q7 -13 18.5 -17.5t22.5 -2t19.5 9.5t10.5 16q10 -7 18 -8v46q0 10 -6 19t-15 14.5t-18.5 5.5t-16.5 -9q-5 -6 -3.5 -14.5t10.5 -10.5q8 -2 11 3t2 11q10 -1 14 -6t4 -11t-3.5 -12.5t-8.5 -9.5q-9 -5 -18.5 -4.5t-18 5
t-14.5 12.5t-7 19q-2 19 7 32t23 19t30 5t29 -9v15t2.5 17t8 14.5t17.5 7.5q15 1 22 -5.5t8.5 -14.5t-3 -14.5t-13.5 -5.5q4 10 -4 11t-8 -8v-119q11 5 18.5 16t8.5 26q7 -4 16 -3t16.5 5.5t13.5 12t7 16.5zM179 227q4 5 10 8.5t12 3.5t11 -4t6 -13q-6 1 -11.5 -1.5
t-3.5 -10.5q1 -5 6.5 -7.5t11.5 -1t11 7.5t5 18q0 13 -12.5 23t-26.5 10q-17 0 -30 -9.5t-18 -38.5q-2 -9 -2.5 -31t-0.5 -47t0.5 -48t0.5 -33q0 -7 7.5 -14.5t14.5 -7.5h89v48q-1 10 -7.5 18.5t-15.5 13.5t-18.5 4.5t-16.5 -9.5q-4 -6 -3 -15t10 -11q8 -2 11.5 3t2.5 11
q10 -1 14 -6t4 -11.5t-3.5 -12.5t-8.5 -10q-9 -6 -19 -5.5t-19 5.5t-15 13.5t-7 19.5q-2 20 7.5 33.5t24 19.5t31.5 5t30 -10q2 25 10.5 37t8.5 14v137l-11 5q-13 -18 -32 -22q-28 -5 -47 14q-20 -14 -45.5 -9.5t-37.5 26.5q-9 -15 -17.5 -28.5t-6.5 -30.5q1 -17 12.5 -30
t24.5 -27q5 30 24.5 49t43.5 20q26 2 37.5 -4t20.5 -13q14 -12 18 -30t-0.5 -34t-18 -27.5t-34.5 -9.5q-11 1 -19.5 6.5t-13 13.5t-5 17.5t5.5 17.5zM438 226q8 9 16 17.5t13 19t5 22.5t-9 27l-53 86q-5 -9 -12 -15q-17 -13 -37 -11q-5 -19 -17.5 -32.5t-32.5 -17.5v-115
q5 2 9.5 3t9.5 1q26 1 37.5 -4.5t20.5 -13.5q13 -12 18 -29v84q0 14 -6.5 24t-15.5 14.5t-18.5 3t-15.5 -9.5q-5 -6 -3.5 -15.5t10.5 -11.5q8 -1 11 4t3 11q10 -2 14 -7t4 -11.5t-3.5 -12.5t-8.5 -10q-9 -5 -19 -4.5t-19 5.5t-15 13.5t-7 19.5q-2 21 9 35.5t27.5 19.5
t34.5 1t32 -19q15 -17 16.5 -34.5t1.5 -37.5zM290 31h94q7 0 14.5 7.5t7.5 14.5v82q-5 -19 -19.5 -30.5t-34.5 -9.5q-10 1 -18.5 6.5t-13.5 13.5t-5.5 17t5.5 18q3 4 9.5 7.5t13 4t11.5 -3.5t6 -14q-6 1 -11.5 -1t-4.5 -10q1 -5 6.5 -7.5t12 -1t11.5 7.5t5 18q0 10 -7 18
t-17.5 12t-22 3t-21.5 -8v-1q-5 0 -11 -12.5t-8 -26.5q-1 -8 -1.5 -21.5t-0.5 -29v-30v-23.5z" />
    <glyph glyph-name="percent" unicode="%" horiz-adv-x="1024" 
d="M974 40v-40h-924v40h113v324h-32v135q-16 9 -22 25.5t-3.5 32.5t13.5 28t30 12q7 0 16 -3t15 -9t6.5 -15t-9.5 -19q-9 12 -17.5 10t-12.5 -9q-2 -6 2 -12.5t9 -6.5l77 -1q-15 6 -22 23t-4 34.5t17.5 31.5t42.5 14h56l197 115l201 -116h65q18 0 30.5 -13t16.5 -30
t-1.5 -34.5t-21.5 -25.5h69q5 0 9.5 7t1.5 13q-3 7 -12 9t-18 -10q-10 10 -9.5 19t6.5 15t15 9t17 3q18 0 28.5 -11t14 -26t-1.5 -31t-19 -26v-138h-31v-324h92zM403 376v-266h249v266h-249zM348 519h349v84l-174 101l-175 -101v-84zM314 417h417v61h-417v-61zM282 61l81 46
v270h-49v-13h-32v-303zM763 364h-32v13h-39v-270l71 -40v297zM242 364h-39v-324h39v324zM842 364h-39v-320l3 -2v-2h36v324zM730 40l-52 30h-302l-52 -30h406zM523 649q18 0 31 -10t19 -24t3.5 -30t-15.5 -29q-13 -12 -29 -14.5t-30 3.5t-23.5 19t-9.5 31q0 23 15.5 38.5
t38.5 15.5zM274 491h-102v-87h102v87zM873 490h-101v-86h101v86zM262 594q-6 0 -10 -7t-1 -13q3 -7 12 -9t18 10q14 -15 7.5 -26.5t-19.5 -16.5h40v62h-47zM737 531h37q-12 6 -17.5 17t8.5 26q9 -12 17.5 -10.5t11.5 8.5q3 6 -1 13t-10 7h-46v-61zM513 585q5 -5 10.5 -4.5
t9 4.5t4.5 9.5t-4 10.5t-11 4t-9.5 -4.5t-4 -9t4.5 -10.5z" />
    <glyph glyph-name="ampersand" unicode="&#x26;" horiz-adv-x="1045" 
d="M747 407q48 1 90 -16t73.5 -47.5t49.5 -72t18 -88.5v-19h-57q-3 -67 -50 -114q-26 -26 -57.5 -38t-63.5 -12t-62 12t-53.5 33.5t-38.5 51.5t-16 67h-40q-7 -27 -27 -41t-43.5 -15.5t-45.5 10.5t-32 38q-3 -33 -17.5 -61.5t-37 -49.5t-52.5 -33t-63 -12q-57 0 -98 30.5
t-59.5 75.5t-11 95.5t47.5 90.5q36 36 82 46t88.5 -3t75 -46.5t42.5 -82.5q3 11 8.5 19t13.5 16l-113 176h-44q-13 8 -11.5 19t11.5 19l148 -1q27 0 40 -14t14.5 -31t-8 -32.5t-27.5 -18.5q-5 -1 -14 1t-16 6.5t-9.5 12.5t3.5 20q11 -11 21 -8t13 9q2 5 -1.5 11.5t-8.5 6.5
h-68l51 -79v2h175l-28 55l-14 13q1 6 6.5 11t12 7.5t13.5 1.5t12 -7l34 -71q34 31 81 47l-47 92l-109 -26q-26 -6 -42 4t-21.5 26.5t0 34t22.5 24.5q5 2 13.5 2.5t16.5 -2.5t12.5 -10.5t1.5 -20.5q-14 8 -22 3t-10 -12t4.5 -12t13.5 -1l188 142l224 -46q14 5 23 16t9 24
t-7.5 20.5t-16 9.5t-15.5 -1.5t-7 -11.5q0 -9 7 -12t14 -1q1 -12 -4.5 -18t-13.5 -7.5t-16 1t-12 7.5q-8 9 -9.5 20.5t2 22.5t11.5 19.5t20 12.5q21 6 38 0t27.5 -19.5t13.5 -31.5t-2 -36t-20 -32t-40 -20l-134 -32zM317 76q20 19 30 44t10 51t-10 51t-30 45q-32 31 -72 37
t-75 -8.5t-59 -47t-24 -77.5t24 -77.5t59 -47t75 -8.5t72 38zM846 76q36 36 39 88h-49q-2 21 -7 37.5t-22 32.5q-19 17 -42.5 20.5t-44.5 -4.5t-36 -26t-18 -43l-1 -17h-49q2 -44 26.5 -74.5t59.5 -44t74 -7t70 37.5zM940 201q-5 59 -40 100t-83 58.5t-101.5 8t-95.5 -51.5
q-23 -23 -37 -52.5t-17 -62.5h68q8 32 30 54t50.5 31t59.5 3.5t57 -28.5q27 -25 36 -60h73zM222 239q22 0 38.5 -12t24 -30t4.5 -38t-19 -36t-36 -19t-38 4.5t-30 23.5t-12 39q0 28 20 48t48 20zM750 239q22 0 38.5 -12t24 -30t4.5 -38t-19 -36t-36 -19t-37.5 4.5
t-29.5 23.5t-12 39q0 28 19.5 48t47.5 20zM749 552l27 6l70 17l-132 28l-112 -86zM532 224q9 43 32 80h-151l29 -45q26 8 51 -2t39 -33zM435 155q15 -15 31.5 -13t27.5 13.5t13 28t-13 31.5t-31.5 12.5t-27.5 -13.5t-13 -27.5t13 -31.5zM714 423l40 93l-81 -19zM728 149
q11 -11 23.5 -9.5t21 9.5t10 20.5t-9.5 23.5v1q-11 11 -23.5 9.5t-21 -10t-10 -21t9.5 -23.5zM200 149q11 -11 23.5 -9.5t20.5 9.5t9.5 20.5t-9.5 23.5v1q-11 11 -23.5 9.5t-20.5 -10t-9.5 -21t9.5 -23.5z" />
    <glyph glyph-name="parenleft" unicode="(" horiz-adv-x="1245" 
d="M80 235q6 -11 16 -16t21 -5.5t22 3.5t20 11q-2 9 0.5 17t8 14t13.5 8.5t17 -0.5q6 -2 11 -10t-1 -18q-6 6 -11.5 5t-7 -5.5t2 -11t14.5 -10.5q21 -8 40.5 1t30.5 26q7 -12 21.5 -21t28.5 -10q14 0 30 8.5t24 20.5q8 -12 24 -20.5t30 -8.5q15 1 29 10t22 21
q7 -12 21.5 -20.5t28.5 -8.5q10 0 21.5 3.5t20.5 10.5q-5 18 6 34t34 13q9 -1 14.5 -7t7 -12.5t-1.5 -13t-12 -7.5q0 9 -5 11t-9.5 0t-6.5 -8.5t6 -13.5q6 -6 15.5 -9t18.5 -3t17 4t15 9q-9 16 -8.5 33t8.5 31q4 9 13.5 16t21 11t23.5 2.5t22 -8.5q16 -12 19 -30t-11 -34
q-11 -13 -28.5 -11.5t-22.5 17.5q-4 11 3 21t20 2q-4 -3 -4.5 -8t4.5 -8q4 -2 8 0.5t6 7.5t0.5 11t-8.5 12q-9 6 -21.5 3t-19.5 -12q-9 -12 -5.5 -28t16 -27.5t31.5 -13t40 14.5q-5 13 -2.5 27t13.5 23q7 6 15.5 7t16.5 -1t13.5 -7.5t7.5 -14.5q2 -12 -7 -20t-20 1
q4 3 5.5 7.5t-3.5 8.5q-6 4 -11.5 0t-6.5 -11q0 -10 7.5 -18t18.5 -12.5t24 -4t23 6.5q20 14 25 35q15 -3 17 -14.5t-5.5 -24t-23.5 -22.5t-37 -10q-32 0 -54 22q-22 -20 -52.5 -21t-52.5 20q-21 -21 -52 -20t-53 21q-21 -20 -52 -21t-52 20q-22 -21 -52.5 -20t-52.5 21
q-21 -20 -52 -21t-52 20q-22 -21 -52.5 -20t-52.5 21q-18 -17 -39 -20t-39.5 3t-30.5 20t-12 31q0 12 7 19t15 8t15.5 -4t7.5 -16q-7 2 -13 0t-3 -12zM238 83q-8 -2 -11 -7.5t-0.5 -11.5t10.5 -10.5t20 -4.5q14 -1 30 7.5t24 20.5q8 -12 24 -20.5t30 -7.5q17 0 34 12
q-3 9 -0.5 18t7.5 15.5t13.5 9t17.5 -0.5q6 -2 11 -10t-1 -17q-6 6 -11.5 4.5t-7 -6t2.5 -11.5t18 -11l17 -3q14 -1 30 7.5t24 20.5q8 -12 24 -20.5t30 -7.5q14 0 28.5 9t22.5 22q7 -13 21.5 -22t28.5 -9q14 -1 30 7.5t24 20.5q8 -12 24.5 -20.5t30.5 -7.5q15 0 28 9.5
t22 21.5q10 -12 22 -21.5t28 -9.5q16 -1 30 8t25 20q7 -11 19 -18t25.5 -9.5t26.5 2t21 18.5q12 0 15 -8t-2 -17t-18 -17t-33 -8q-15 0 -29 5t-25 16q-22 -20 -52.5 -21t-52.5 20q-22 -21 -52.5 -20t-52.5 21q-21 -20 -52 -21t-52 20q-22 -21 -52.5 -20t-52.5 21
q-19 -18 -45.5 -20.5t-48.5 11.5l-12 7q-21 -20 -51.5 -19t-51.5 21q-14 -13 -32 -18t-35 -2t-30.5 12.5t-17.5 24.5q-5 15 0.5 25t14.5 14.5t17 1t10 -15.5zM379 139q9 -6 20.5 -6.5t22.5 3t20 10t15 15.5q8 -12 24 -20.5t30 -8.5q15 0 29 9t22 22q7 -13 21.5 -22t28.5 -9
t30 8.5t24 20.5q8 -12 24.5 -20.5t30.5 -8.5q19 0 37 15q-2 8 1 16t8 14t13 8t17 -1q6 -2 11 -10t-1 -18q-6 6 -10.5 5.5t-7 -4t-1.5 -8.5t6 -9q14 -8 27 -8q14 0 30.5 8.5t24.5 20.5q8 -12 24 -20.5t30 -8.5q15 0 28 9.5t22 21.5q10 -12 22 -21.5t29 -9.5q15 0 29.5 9
t24.5 20q6 -9 15 -16t20 -10t22.5 -2.5t20.5 6.5t14 15q4 2 9.5 -1t7.5 -9t-1 -14t-14 -15q-22 -14 -48.5 -11t-45.5 20q-22 -20 -52.5 -20.5t-52.5 19.5q-21 -20 -52 -19.5t-52 20.5q-20 -18 -46.5 -20t-49.5 12q-2 2 -4.5 3.5t-4.5 3.5q-22 -20 -52.5 -19.5t-52.5 20.5
q-21 -20 -52 -20.5t-52 19.5q-22 -20 -52.5 -19.5t-52.5 20.5q-17 -15 -36 -19t-36.5 0.5t-29.5 15t-15 24.5q-4 16 3.5 27t21.5 3q-4 -12 0.5 -21.5t13.5 -14.5z" />
    <glyph glyph-name="parenright" unicode=")" horiz-adv-x="1593" 
d="M772 76q-5 -32 -30.5 -54t-57.5 -22h-163q2 11 10.5 18t18.5 7h105q14 0 26 10.5t14 24.5l3 18h-86q-23 0 -40 12.5t-23 33.5q-2 8 -2 15t2 15l25 155q3 15 11 29t20 24.5t27 16.5t31 6h102l-2 -3q-1 -1 -9.5 -13.5t-10.5 -37.5q12 23 34 38.5t48 16.5zM1029 78
q-31 0 -50 22t-13 54l27 155q5 32 31 54t57 22h162l-43 -247q-2 -14 6 -24.5t23 -10.5h30q-1 -11 -9.5 -18t-19.5 -7h-42q-12 0 -22.5 5t-14.5 17q-5 -11 -15.5 -16.5t-24.5 -5.5h-82zM468 385q32 0 50 -22t13 -54l-26 -155q-3 -16 -11.5 -30t-20.5 -24t-27 -16t-30 -6h-85
q-32 0 -50 22t-13 54l26 155q3 15 11 29t20 24.5t27 16.5t31 6h85zM174 310q3 15 11 28.5t20 24t27 17t31 6.5l-54 -310q-5 -32 -31 -54t-57 -22h-71q2 11 10.5 18t18.5 7q11 1 19 1t19 9q12 11 15 25zM873 310q5 30 30.5 53t57.5 23l-53 -310q-5 -32 -31 -54t-57 -22h-71
q2 11 10.5 18t18.5 7q11 1 19 1t19 9q12 11 15 25zM1039 138q-3 -16 5.5 -25.5t22.5 -9.5t23.5 0.5t20.5 9.5q12 11 15 25l37 221h-53q-14 0 -26 -10.5t-14 -23.5zM460 325q2 14 -6.5 24t-22.5 10h-24t-21 -10q-13 -9 -14 -24l-32 -187q-2 -14 6.5 -24.5t22.5 -10.5
t23.5 0.5t20.5 10.5q12 10 15 24zM739 325q3 14 -5.5 24t-22.5 10h-19q-14 0 -25.5 -10t-14.5 -24l-31 -187q-2 -15 6.5 -25t22.5 -10q13 0 22.5 0.5t20.5 9.5t13.5 19t4.5 23zM276 463q-3 -15 -11 -29t-20 -24.5t-27 -16.5t-30 -6l9 55q3 15 11 29t20 24.5t26.5 16.5
t30.5 6zM974 463q-5 -31 -30.5 -53.5t-57.5 -22.5l10 55q5 31 30.5 53.5t56.5 22.5zM1529 -58q-3 -13 13 -11q1 -8 -9 -12t-18 4q-3 2 -5 9l-3.5 -3.5l-3.5 -3.5q-4 -4 -8 -5q-6 -2 -9 -2q-5 0 -13 4q-5 3 -8 10t-3 18q2 14 4 22q5 9 10 16q7 7 14 10q11 5 24.5 4t24.5 -2z
M1253 0q5 -3 6 -7q2 -4 2 -10v-4q0 -2 -1 -3l-8 -46q0 -3 -3 -6t-7 -3h-10l9 51v11l-2 2q-1 1 -3 1q-1 0 -5 -2t-7 -7q-5 -3 -8 -11l-7 -37q0 -3 -3 -5.5t-6 -2.5h-11l9 51v4q1 1 1 3q0 3 -1 4q0 2 -2 2q0 1 -2 1t-6 -2q-2 -1 -3.5 -3t-3.5 -4t-4 -5t-4 -7l-6 -35
q-1 -3 -4 -6t-6 -3h-11l13 72q0 3 3 4.5t5 1.5h10l-2 -15q6 9 13 13q7 5 14 5q4 0 8 -2q3 -2 5 -5q3 -5 3 -9q3 4 6.5 7t6.5 5q4 2 7 3t7 1t8 -2zM1464 -1l-29 -67q-2 -4 -5 -7.5t-7 -3.5h-17l1 56h-1l-19 -49q-4 -7 -8 -7h-19l-3 69q0 5 3 7t5 2h10v-64h1l22 56q2 8 10 8
h12v-63l22 56q3 7 11 7h11zM1333 -1q6 -3 9 -7q7 -12 0 -22q-8 -13 -24 -18q-5 -1 -10.5 -1.5t-14.5 -0.5q0 -5 2 -9q1 -4 5 -6t7 -2q4 0 6 1q3 0 7 2l11 6q4 -2 4 -8.5t-10 -10.5q-5 -3 -9 -3q-8 -2 -10 -2q-8 0 -18 4q-8 5 -11 12t-3 18q0 13 4 21q3 9 9 15q5 6 14 10
q7 4 17 4q9 0 15 -3zM1013 -14q-7 0 -8 -7q0 -2 1 -3l2 -2l4 -3l8 -3l13 -6q4 -3 6 -8q2 -3 2 -10q0 -8 -4 -13q-5 -7 -12 -9q-10 -4 -18 -4q-13 0 -23 6q-5 3 -5.5 8.5t7.5 9.5q4 -4 6 -5l8 -3q2 -1 8 -1q4 0 10 2q3 3 3 7v4l-2 3l-5 3l-8 3l-12 6q-4 3 -6 8q-2 3 -2 9
q0 8 4 12q3 5 10 9q7 3 17 3q13 0 25 -10q-2 -5 -5.5 -8t-9.5 0q-6 4 -14 2zM1085 -1h19l-1 -7q-2 -6 -9 -6h-11l-7 -42q-2 -3 0 -6q0 -1 2 -3q1 -1 4 -1t5 1q1 0 5 2q3 -2 4.5 -8t-8.5 -9q-8 -2 -11 -2q-8 0 -12 3q-4 1 -7 7q-2 6 -2 11q0 2 1 3v4l7 40h-10l1 9q2 4 6 4h5
l2 11q2 7 9 7h11zM952 -7q0 6 7 6h13l-12 -70q-2 -8 -8 -8h-13zM1120 -7q0 6 7 6h13l-12 -70q-2 -8 -9 -8h-12zM1518 -12q-17 4 -28 -10q-4 -5 -5 -11q-3 -8 -3 -17q0 -7 1 -10q1 -2 2 -3t2 -3q2 -1 6 -1t6 1q1 2 2 2.5t3 2.5t3 4t3 4zM1314 -35q11 3 11 15q0 5 -2 6
q-2 2 -6 2q-6 0 -10 -3q-5 -4 -8 -9q-2 -3 -3 -5.5t-2 -7.5h10t10 2zM956 18q0 10 11 10h10l-1 -9q-2 -10 -10 -10h-2h-10zM1123 18q1 10 11 10h11l-2 -9q0 -10 -9 -10h-2h-10z" />
    <glyph glyph-name="asterisk" unicode="*" horiz-adv-x="828" 
d="M748 542h-20q3 -40 -10.5 -62.5t-35 -30.5t-46.5 -3t-44 22l-10 9q-35 31 -63.5 28.5t-44.5 -21.5t-16 -47.5t23 -49.5q14 -13 35.5 -14.5t33.5 12.5q11 12 11.5 22.5t-4 17.5t-12 9.5t-13.5 -1.5q-8 -7 -5 -14t9 -12q-10 -9 -18.5 -8t-14.5 7t-9 15t-2 17q2 14 11 23
t21 12t25.5 1t24.5 -11q28 -22 28 -51.5t-23 -55.5q-15 -15 -34 -21.5t-38.5 -4t-37.5 12t-31 26.5l-2 4t-3 4v-377h-45v367q-13 -16 -31 -25t-37 -11t-38 4t-33 21q-23 26 -23 55.5t27 51.5q11 9 25 11t26 -1t21 -12t11 -23q1 -8 -2 -17t-9 -15t-14.5 -7t-18.5 8q6 5 9 12
t-5 14q-6 4 -13.5 1.5t-12 -9.5t-4 -17.5t11.5 -22.5q12 -14 33.5 -12.5t35.5 14.5q23 21 23 49.5t-16 47.5t-44.5 21.5t-63.5 -28.5q-14 -13 -28 -21t-34 -11q-43 -6 -65.5 22.5t-18.5 74.5h-20l-30 122h28l50 36l45 -36h28l-33 -122h-25q-3 -27 4 -39t17.5 -15t22.5 1.5
t20 11.5l10 9q39 35 80 42.5t83 -31.5l8 -9v79q-3 4 -8 6t-10 0q-6 17 1.5 27.5t19.5 12.5l19 19l20 -19q13 -1 21 -11.5t1 -28.5q-5 2 -11 -1t-8 -8v-85q6 9 15 18q42 39 83 31.5t80 -42.5q8 -8 16.5 -14t22.5 -8q24 -3 30.5 14.5t4.5 39.5h-26l-32 122h28l45 36l50 -36h28
zM722 620h-38l9 -34h21zM135 586l9 34h-38l8 -34h21z" />
    <glyph glyph-name="period" unicode="." horiz-adv-x="662" 
d="M331 700q56 0 105.5 -21.5t86.5 -58.5t58.5 -86.5t21.5 -105.5t-21.5 -105.5t-58.5 -86.5t-86.5 -58t-105.5 -21t-105.5 21t-86.5 58t-58 86.5t-21 105.5t21 105.5t58 86.5t86.5 58.5t105.5 21.5zM331 667q-50 0 -93.5 -19t-75.5 -51t-51 -76t-19 -93q0 -50 19 -93.5
t51 -75.5t75.5 -51t93.5 -19q49 0 93 19t76 51t51 75.5t19 93.5t-18.5 93.5t-51 76t-76 51t-93.5 18.5zM305 514q3 14 8 29.5t13 29t19.5 22.5t29.5 9q22 0 38 -17t16 -38q0 -15 -9.5 -29t-23.5 -24.5t-30.5 -16.5t-30.5 -6q-8 -27 -13.5 -54t-10.5 -54q9 -6 22.5 -14
t28 -15.5t28.5 -13t25 -5.5t18.5 6.5t7.5 17.5q0 16 -10 22.5t-21.5 10.5t-21.5 8t-10 15q0 8 6 14t14 6q16 0 30.5 -6t26 -16t18.5 -24.5t7 -30.5q0 -26 -19.5 -43.5t-45.5 -17.5q-14 0 -29 4.5t-30 11.5t-29 15t-26 15q-8 -20 -22.5 -35t-37.5 -15q-25 0 -40 20t-15 43
t15 37.5t38 14.5q9 0 18 -2t18 -5q4 23 9.5 46.5t10.5 46.5q-8 2 -20.5 8.5t-24.5 15.5t-20.5 18.5t-8.5 18.5q0 8 5.5 14t13.5 6q4 0 11.5 -5.5t17 -13t19 -14.5t17.5 -10zM415 34q0 -5 -1 -6.5t-3 -5.5l-5 -4q-2 0 -2.5 -0.5t-2.5 -0.5t-5 1.5l-5 2.5v-21h-10v87h7l2 -3
l4 3q2 0 3 0.5t3 0.5q15 0 15 -16v-38zM258 19h-10v53l-2 5l-4 2l-5 -2l-2 -5v-53h-10v11.5v18.5v18t-1 10l-5 2q-5 0 -6.5 -8.5t-1.5 -19t1 -20t1 -12.5h-10v68h6l3 -3q1 4 8 4q3 0 7 -2l3 -5q4 4 6 5.5t7 1.5q2 0 3 -0.5t3 -0.5l5 -3q4 -6 4 -12v-53zM612 19h-10v11.5
v18.5v18t-1 10l-5 2l-5 -2q-1 -2 -1 -10v-18v-18.5v-11.5h-10v53l-2 5l-5 2q-5 0 -6.5 -8.5t-1.5 -19t1 -20t1 -12.5h-10v68h7l2 -3q3 4 9 4q5 0 10 -7l4 5q6 2 9 2q6 0 10 -4q4 -6 4 -12v-53zM550 34q0 -2 -0.5 -3.5t-0.5 -3.5l-4 -5q-2 -2 -5.5 -3t-6.5 -2q-7 1 -12 5
l-4 5q0 2 -0.5 3.5t-0.5 3.5v38q0 16 17 16q2 0 3.5 -0.5t3.5 -0.5q5 -3 7.5 -6t2.5 -9v-38zM115 34q0 -2 -0.5 -3.5t-0.5 -3.5l-4 -5q-8 -4 -12 -5q-3 1 -6.5 2t-5.5 3l-4 5q0 2 -0.5 3.5t-0.5 3.5v38q0 6 2.5 9t7.5 6q2 0 3.5 0.5t3.5 0.5q6 0 12 -4l4 -6q0 -2 0.5 -3
t0.5 -3v-38zM196 34q0 -7 -5 -12l-6 -3t-6 -2q-3 0 -6 1.5t-6 3.5l-4 5q0 2 -0.5 3.5t-0.5 3.5v38q0 16 17 16q6 0 12 -4l3 -6t2 -6v-38zM299 34q0 -7 -5 -12l-6 -3t-6 -2q-3 0 -6 1.5t-6 3.5l-4 5q0 2 -0.5 3.5t-0.5 3.5v38q0 16 17 16q6 0 12 -4l3 -6t2 -6v-38zM454 34
q0 -2 -0.5 -3.5t-0.5 -3.5q-2 -4 -6 -7t-9 -3q-3 0 -6 1.5t-6 3.5l-4 5q0 2 -0.5 3.5t-0.5 3.5v38q0 2 0.5 3.5t0.5 3.5l4 5q6 4 12 4q2 0 3.5 -0.5t3.5 -0.5q5 -4 9 -9q1 -3 1 -8q0 -14 -6 -19.5t-18 -12.5v-4l2 -5l5 -2l5 2l2 5v2l9 3v-5zM374 0h-10v20q-2 -1 -4.5 -2
t-4.5 -1q-6 0 -10 4l-4 5q-1 3 -1 8v53h10v-53l2 -5l5 -2l5 2l2 5v53h10v-87zM345 514q5 1 13 4.5t15 8.5t12 11t5 12t-5 10.5t-11 4.5t-11 -6t-8.5 -14.5t-6 -17t-3.5 -13.5zM493 79l-5 -2l-2 -5v-38l2 -5l5 -2l5 2l2 5v2l10 3v-5q0 -5 -1 -7q-5 -6 -7 -7t-9 -3
q-3 1 -6.5 2t-5.5 3l-4 5q0 2 -0.5 3.5t-0.5 3.5v38q0 5 1 7l4 5l5 3q2 0 3.5 0.5t3.5 0.5q6 0 9 -2t7 -7q1 -3 1 -10h-10v3l-2 5zM267 344q-14 7 -26 7q-16 0 -16 -15q0 -6 4 -14t12 -8q11 0 17 11t9 19zM138 79l-5 -2l-2 -5v-38l2 -5l5 -2l6 2l2 5v2l9 3v-5q0 -5 -1 -7
l-4 -5q-3 -2 -6 -3.5t-6 -1.5q-5 0 -9 3t-6 7q0 2 -0.5 3.5t-0.5 3.5v38q0 16 16 16q5 0 6.5 -1t5.5 -3l4 -5q1 -3 1 -10h-9v3l-2 5zM329 29l7 -7q-2 -1 -5.5 -3t-5.5 -2q-9 0 -12.5 8.5t-4 19t0.5 20.5t1 13h-6v9h6v12l10 4v-16h12v-9h-12v-44q0 -5 2.5 -7t6.5 2zM77 19
h-27v87h10v-77h17v-10zM540 72l-2 5l-5 2l-5 -2l-2 -5v-38l2 -5l5 -2l5 2l2 5v38zM105 72l-2 5l-5 2l-5 -2l-2 -5v-38l2 -5l5 -2l5 2l2 5v38zM405 72l-2 5l-5 2l-5 -2l-2 -5v-38l2 -5l5 -2l5 2l2 5v38zM186 72l-2 5l-5 2l-5 -2l-2 -5v-38l2 -5l5 -2l5 2l2 5v38zM289 72l-2 5
l-5 2l-5 -2l-2 -5v-38l2 -5l5 -2l5 2l2 5v38zM445 70q0 5 -2 7l-5 2l-5 -2l-2 -5v-23q4 2 6.5 4t5.5 4q0 1 1 3t1 3v7zM470 25l-2 -5l-3 -2l-4 2l-1 5l1 4l4 2l3 -2z" />
    <glyph glyph-name="zero" unicode="0" horiz-adv-x="456" 
d="M342 656q25 0 46 -10t35 -26.5t20 -39.5t2 -48l-68 -408q-4 -26 -17.5 -48.5t-33 -39t-44 -26.5t-49.5 -10h-139q-26 0 -46.5 10t-35 26.5t-20.5 39t-1 48.5l67 408q4 25 18 48t33.5 39.5t43.5 26.5t50 10h139zM327 559q4 23 -10 39.5t-37 16.5h-29q-23 0 -42.5 -16.5
t-23.5 -39.5l-77 -461q-4 -23 10 -40t37 -17h30q23 0 42.5 17t23.5 40z" />
    <glyph glyph-name="one" unicode="1" horiz-adv-x="229" 
d="M58 532q4 25 17.5 47.5t33 39.5t43.5 27t49 10l-108 -656h-123z" />
    <glyph glyph-name="two" unicode="2" horiz-adv-x="419" 
d="M142 250q-13 -8 -22 -20t-11 -26l-27 -163h265q-3 -17 -16.5 -29t-30.5 -12h-347l27 160q5 27 19.5 50.5t35.5 40.5q19 15 47.5 29.5t58.5 27.5t59 26t51 25q13 8 22.5 20.5t11.5 27.5l26 152q4 23 -10 39.5t-37 16.5h-209q3 17 16.5 29t30.5 12h223q25 0 46 -10
t35.5 -26.5t20 -39.5t1.5 -48l-13 -80q-5 -29 -21.5 -54t-39.5 -42q-20 -15 -48 -28.5t-57 -27t-57.5 -26t-49.5 -24.5z" />
    <glyph glyph-name="three" unicode="3" horiz-adv-x="507" 
d="M130 314q39 20 82 37.5t73 34.5q13 8 22.5 20.5t11.5 26.5l21 126q4 23 -10 39.5t-37 16.5h-208q3 17 16.5 29t30.5 12h223q25 0 46 -10t35 -26.5t20 -39.5t2 -48l-9 -53q-5 -29 -21.5 -54t-39.5 -42q-10 -8 -22 -14.5t-25 -13.5q11 -8 20.5 -14.5t17.5 -14.5
q17 -17 25.5 -41.5t3.5 -53.5l-17 -107q-5 -26 -18.5 -48.5t-33 -39t-44 -26.5t-49.5 -10h-223q-17 0 -26.5 12t-6.5 29h208q23 0 42.5 16.5t23.5 39.5l29 179q3 15 -2 27.5t-16 20.5q-5 -3 -10.5 -5.5t-10.5 -4.5h-124z" />
    <glyph glyph-name="four" unicode="4" horiz-adv-x="437" 
d="M95 230q-26 0 -47 10t-35 26.5t-20 39t-2 48.5l5 29l24 149q4 25 17.5 47.5t33 39.5t43.5 27t49 10l-54 -328q-4 -23 10 -40t37 -17h30q23 0 42 17t23 40l34 204q4 25 17.5 47.5t33 39.5t43 27t49.5 10l-89 -534q-4 -26 -17.5 -48t-33 -39t-43.5 -27t-49 -10l39 232h-140
z" />
    <glyph glyph-name="five" unicode="5" horiz-adv-x="426" 
d="M286 459q26 0 47 -10t35 -26.5t20 -39.5t2 -48l-35 -211q-4 -26 -17.5 -48.5t-33.5 -39t-44.5 -26.5t-49.5 -10h-222q-17 0 -26.5 12t-7.5 29h209q23 0 42 16.5t23 39.5l45 268q4 23 -10 39.5t-37 16.5h-30q-20 0 -32.5 -8t-21 -20t-15 -26.5t-15.5 -26.5
q-20 -29 -52 -48t-67 -19l43 259q4 25 17.5 48t33 39.5t43.5 26.5t50 10h216q-3 -17 -16.5 -28.5t-30.5 -12.5h-121q-23 0 -42 -16.5t-23 -39.5l-17 -100h140z" />
    <glyph glyph-name="six" unicode="6" horiz-adv-x="466" 
d="M251 614q-23 0 -42.5 -16t-23.5 -39l-16 -100h140q25 0 46 -10t35.5 -26.5t20.5 -39.5t2 -48l-35 -211q-5 -26 -18.5 -48.5t-33 -39t-44 -26.5t-49.5 -10h-139q-26 0 -46.5 10t-34.5 26.5t-20 39t-2 48.5l67 408q4 25 18 48t33.5 39.5t43.5 26.5t50 10h216
q-3 -17 -16.5 -29t-30.5 -13h-121zM218 420q-23 0 -42 -16.5t-23 -39.5l-45 -268q-4 -23 10 -39.5t37 -16.5h30q23 0 42.5 16.5t23.5 39.5l44 268q4 23 -10 39.5t-37 16.5h-30z" />
    <glyph glyph-name="seven" unicode="7" horiz-adv-x="353" 
d="M44 615q-17 1 -26.5 12.5t-6.5 28.5h211q26 0 47 -10t35 -26.5t20 -39.5t2 -48l-89 -534q-25 0 -45.5 10t-34.5 27t-20 39t-2 48l73 437q4 23 -10 39.5t-37 16.5h-117z" />
    <glyph glyph-name="eight" unicode="8" horiz-adv-x="467" 
d="M356 656q21 0 38 -8t28 -21.5t16 -31.5t2 -39l-19 -112q-5 -29 -24.5 -53t-45.5 -37q27 -14 40.5 -42t7.5 -63l-21 -131q-4 -24 -17 -45.5t-31.5 -37.5t-41.5 -25.5t-47 -9.5h-152q-24 0 -44 9.5t-33.5 25.5t-19 37.5t-1.5 45.5l22 131q5 35 28 63t55 42q-23 13 -34.5 37
t-6.5 53l19 112q3 21 14 39t27 31.5t35.5 21.5t40.5 8h165zM281 272q4 23 -10 39.5t-37 16.5h-30q-23 0 -42 -16.5t-23 -39.5l-29 -174q-4 -23 10 -40t37 -17h29q23 0 42.5 17t23.5 40zM329 559q4 23 -10 39.5t-37 16.5h-30q-23 0 -42.5 -16.5t-23.5 -39.5l-22 -134
q-4 -23 10 -39.5t37 -16.5h30q23 0 42 16.5t23 39.5z" />
    <glyph glyph-name="nine" unicode="9" horiz-adv-x="462" 
d="M25 0q-17 0 -26.5 12.5t-6.5 29.5h161q23 0 42 16t23 39l17 100h-140q-26 0 -47 10t-35 27t-20 39.5t-2 48.5l35 210q4 25 17.5 48t33.5 39.5t44 26.5t50 10h138q26 0 47 -10t35 -26.5t20 -39.5t2 -48l-68 -408q-4 -26 -17.5 -48.5t-33 -39t-44 -26.5t-49.5 -10h-176z
M185 236q23 0 42.5 16.5t23.5 39.5l44 268q4 23 -10 39.5t-37 16.5h-29q-23 0 -42.5 -16.5t-23.5 -39.5l-44 -268q-5 -23 9 -39.5t37 -16.5h30z" />
    <glyph glyph-name="at" unicode="@" horiz-adv-x="442" 
d="M123 93v133h26v102q-6 0 -13 1.5t-13.5 5.5t-11 10t-5.5 17q-2 17 6 25.5t17 10t16.5 -4t6.5 -15.5q-5 2 -8 0t-4 -5t1.5 -6t7.5 -3h8l33 253h-30q-14 0 -18.5 6t-4 14.5t5 16t9.5 10.5q3 -11 13 -10.5t26 0.5q5 26 10.5 49.5t19.5 46.5q11 -20 18.5 -39.5t11.5 -56.5
q18 0 27 -0.5t13 10.5q17 -14 16 -30.5t-18 -16.5h-37l33 -253h8q5 0 7.5 3t2 6t-3.5 5t-9 0q-2 10 6 15.5t17 4t16.5 -10t6.5 -25.5q-1 -11 -5.5 -17t-11 -10t-13.5 -5.5t-13 -1.5v-102h26v-133h20v-28h24v-28h29v-37h-342v37h29v28h24v28h20zM156 93h130v96h-130v-96z
M261 328h-80v-102h80v102zM190 364h62l-31 241z" />
    <glyph glyph-name="A" unicode="A" horiz-adv-x="494" 
d="M470 41q-3 -17 -16.5 -29t-30.5 -12h-70q-19 0 -37 8t-24 28q-5 -14 -22 -25t-43 -11h-133q-26 0 -46.5 10t-34.5 26.5t-20 39t-2 48.5l43 252q4 25 18 48t33.5 39.5t43.5 26.5t50 10h263l-68 -401q-4 -24 9.5 -41t37.5 -17h49zM313 459h-86q-23 0 -42.5 -16.5
t-23.5 -39.5l-52 -306q-4 -23 10 -39.5t37 -16.5h30q23 0 42 16.5t24 39.5zM342 250q4 27 8 50.5t6.5 41.5t4 28t0.5 10t-3 -10t-5.5 -28t-8 -41.5t-8.5 -50.5q-5 -27 -9 -50.5t-6.5 -41.5t-3.5 -28t0 -10l2.5 10t6 28t7.5 41.5t9 50.5zM77 250q4 27 8 50.5t6.5 41.5t4 28
t0.5 10t-3 -10t-5.5 -28t-8 -41.5t-8.5 -50.5q-5 -27 -8.5 -50.5t-6 -41.5t-4 -28t-0.5 -10t3 10t5.5 28t7.5 41.5t9 50.5z" />
    <glyph glyph-name="B" unicode="B" horiz-adv-x="490" 
d="M338 500q25 0 46 -10t35.5 -26.5t20 -39.5t1.5 -48l-44 -252q-4 -26 -17 -48t-32.5 -38.5t-43.5 -26.5t-49 -11h-266l102 594q4 25 17.5 47.5t33 39.5t43 27t49.5 10l-37 -218h141zM323 403q5 23 -9 39.5t-37 16.5h-87l-71 -418h86q23 0 42 16.5t24 39.5zM71 120
q1 0 4.5 19t9.5 51t13.5 75.5t16.5 93.5q8 49 15 92.5t12.5 76t8 51t1.5 18.5l-4 -18.5t-10 -51t-13.5 -76t-16.5 -92.5q-8 -50 -15 -93.5t-12.5 -75.5t-8 -51t-1.5 -19zM361 250q4 27 8 50.5t6.5 41.5t3.5 28l1 10q-2 0 -9 -38t-17 -92q-5 -27 -8.5 -50.5t-6 -41.5
t-3.5 -28l-1 -10q1 0 3.5 10t6 28t7.5 41.5t9 50.5z" />
    <glyph glyph-name="C" unicode="C" horiz-adv-x="426" 
d="M109 97q-4 -23 9 -39t36 -17h182q-3 -17 -17 -29t-31 -12h-194q-26 0 -46.5 10t-35 26.5t-20.5 39t-1 48.5l43 252q4 25 18 48t33.5 39.5t43.5 26.5t50 10h194q17 0 27 -12t7 -29h-182q-23 -1 -41.5 -17t-22.5 -39zM77 250q4 27 8 50.5t6.5 41.5t4 28t0.5 10t-3 -10
t-5.5 -28t-8 -41.5t-8.5 -50.5q-5 -27 -9 -50.5t-6.5 -41.5t-3.5 -28t0 -10l2.5 10t6 28t7.5 41.5t9 50.5z" />
    <glyph glyph-name="D" unicode="D" horiz-adv-x="504" 
d="M374 99q-4 -24 9.5 -41t37.5 -17h49q-3 -17 -16.5 -29t-30.5 -12h-70q-19 0 -37 8t-24 28q-6 -14 -22.5 -25t-42.5 -11h-133q-26 0 -46.5 10t-34.5 26.5t-20 39t-2 48.5l43 252q4 25 18 48t33.5 39.5t43.5 26.5t50 10h141l16 94q4 25 17.5 47.5t33 39.5t43.5 27t49 10z
M313 459h-86q-23 0 -42.5 -16.5t-23.5 -39.5l-52 -306q-4 -23 10 -39.5t37 -16.5h30q23 0 42 16.5t23 39.5zM316 120q1 0 4.5 19t9.5 51t14 75.5t16 93.5q9 49 16 92.5t12 76t7.5 51l2.5 18.5q-1 0 -5 -18.5t-10 -51t-13.5 -76t-15.5 -92.5q-9 -50 -16 -93.5t-12 -75.5
t-7.5 -51zM77 250q4 27 8 50.5t6.5 41.5t4 28t0.5 10t-3 -10t-5.5 -28t-8 -41.5t-8.5 -50.5q-5 -27 -8.5 -50.5t-6 -41.5t-4 -28t-0.5 -10t3 10t5.5 28t7.5 41.5t9 50.5z" />
    <glyph glyph-name="E" unicode="E" horiz-adv-x="469" 
d="M318 500q25 0 46 -10t35 -26.5t20 -39.5t2 -48l-25 -146h-265l-22 -133q-4 -23 9.5 -39.5t36.5 -16.5h209q-3 -17 -17 -29t-31 -12h-222q-26 0 -46.5 10t-35 26.5t-20.5 39t-1 48.5l43 252q4 25 18 48t33.5 39.5t43.5 26.5t50 10h139zM303 403q4 23 -10 39.5t-37 16.5
h-29q-23 0 -42.5 -16.5t-23.5 -39.5l-23 -132h142zM77 250q4 27 8 50.5t6.5 41.5t3.5 28l1 10q-2 0 -9 -38t-17 -92q-5 -27 -8.5 -50.5t-6 -41.5t-3.5 -28t0 -10l2.5 10t6 28t7.5 41.5t9 50.5zM345 271q8 46 12.5 77.5t2.5 31.5q-1 0 -7.5 -31.5t-14.5 -77.5h7z" />
    <glyph glyph-name="F" unicode="F" horiz-adv-x="352" 
d="M447 718q-3 -17 -16.5 -29t-30.5 -12h-117q-23 0 -42 -16.5t-24 -39.5l-20 -121h144q-2 -17 -16 -29t-31 -12h-104l-58 -337q-4 -26 -17.5 -48t-33 -39t-43.5 -27t-49 -10l101 596q4 25 18 48t33.5 39.5t43.5 26.5t50 10h212zM115 359q8 49 15 92.5t12.5 76t8 51
t1.5 18.5t-4.5 -18.5t-9.5 -51t-13.5 -76t-16.5 -92.5q-8 -50 -15 -93.5t-12.5 -75.5t-8 -51t-1.5 -19t4.5 19t9.5 51t13.5 75.5t16.5 93.5z" />
    <glyph glyph-name="G" unicode="G" horiz-adv-x="467" 
d="M316 413q18 39 54.5 63.5t77.5 25.5l-85 -505q-5 -26 -18.5 -48.5t-33 -39t-44 -26.5t-49.5 -10h-265q2 17 16 28.5t31 12.5h170q23 0 42 16.5t24 39.5l5 30h-141q-26 0 -46.5 10t-34.5 26.5t-20 39t-2 48.5l43 252q4 25 17.5 48t33 39.5t44 26.5t50.5 10h165q0 -1 -1 -2
t-2 -1q-14 -18 -22 -39.5t-9 -44.5zM262 126l47 277q4 23 -10 39.5t-37 16.5h-31q-23 0 -41.5 -16.5t-22.5 -39.5l-52 -306q-4 -23 10 -39.5t37 -16.5h30q23 0 42 16.5t23 39.5zM336 183q7 40 12.5 76t10 63t6.5 42.5t1 15.5t-4 -15.5t-8 -42.5t-11.5 -63t-13.5 -76
q-7 -41 -12.5 -77t-10 -63t-6.5 -42.5t-1 -15.5t4 15.5t8 42.5t11.5 63t13.5 77zM83 250q4 27 8 50.5t6.5 41.5t3.5 28l1 10q-1 0 -3.5 -10t-6 -28t-8 -41.5t-8.5 -50.5q-5 -27 -8.5 -50.5t-6 -41.5t-3.5 -28l-1 -10q2 0 9 38t17 92z" />
    <glyph glyph-name="H" unicode="H" 
d="M489 41q-3 -17 -17 -29t-31 -12h-64q-26 0 -46.5 10t-34.5 27t-20 39.5t-2 48.5l48 278q4 23 -10 39.5t-37 16.5h-86l-57 -335q-4 -25 -17.5 -47.5t-33 -39.5t-43.5 -27t-49 -10l101 594q4 25 17.5 47.5t33 39.5t43.5 27t49 10l-36 -218h140q25 0 46 -10t35 -26.5
t20 -39.5t2 -48l-48 -278q-4 -23 9 -40t36 -17h52zM114 359q9 49 16 92.5t12 76t7.5 51l2.5 18.5q-1 0 -5 -18.5t-10 -51t-13.5 -76t-15.5 -92.5q-8 -50 -15 -93.5t-12.5 -75.5t-8 -51t-1.5 -19l4 19t10 51t13.5 75.5t15.5 93.5zM360 250q4 27 8 50.5t6.5 41.5t4 28t0.5 10
t-3 -10t-5.5 -28t-8 -41.5t-8.5 -50.5q-5 -27 -8.5 -50.5t-6 -41.5t-4 -28t-0.5 -10t3 10t5.5 28t7.5 41.5t9 50.5z" />
    <glyph glyph-name="I" unicode="I" horiz-adv-x="239" 
d="M199 628q-4 -26 -17.5 -48t-33 -39t-43.5 -27t-49 -10l15 90q4 25 17.5 47.5t33 39.5t43.5 27t50 10zM109 98q-4 -23 9 -40t36 -17h51q-2 -17 -16 -29t-31 -12h-64q-26 0 -46.5 10t-35 26.5t-20.5 39t-1 48.5l44 254q4 25 17.5 47.5t33 39.5t43 27t49.5 10zM77 250
q10 54 15 92t4 38t-3 -10t-5.5 -28t-8 -41.5t-8.5 -50.5q-5 -27 -8.5 -50.5t-6 -41.5t-4 -28t-0.5 -10t3 10t5.5 28t7.5 41.5t9 50.5z" />
    <glyph glyph-name="J" unicode="J" horiz-adv-x="237" 
d="M105 594q4 25 17.5 47.5t33 39.5t43.5 27t49 10l-15 -90q-4 -26 -17.5 -48t-33 -39t-43.5 -27t-49 -10zM69 378q4 25 17.5 47.5t33 39.5t43 27t49.5 10l-86 -505q-5 -26 -18.5 -48.5t-33 -39t-44 -26.5t-49.5 -10h-116q3 17 17 28.5t31 12.5h20q23 0 42.5 16.5t23.5 39.5
zM99 183q7 40 13 76l10.5 63t6.5 42.5t1 15.5t-4 -15.5t-8 -42.5t-11.5 -63t-13.5 -76q-7 -41 -12.5 -77t-10 -63t-6.5 -42.5t-1 -15.5l3.5 15.5t8.5 42.5t11 63t13 77z" />
    <glyph glyph-name="K" unicode="K" 
d="M489 41q-3 -17 -16.5 -29t-30.5 -12h-65q-26 0 -46.5 10t-34.5 26.5t-20 39t-1 48.5l11 62q4 23 -10 39.5t-37 16.5h-86l-21 -120q-4 -26 -17.5 -48t-33 -39t-43.5 -27t-49 -10l102 596q4 25 17.5 47.5t33 39.5t43 27t49.5 10l-74 -434h82q23 0 42 16.5t23 39.5l7 38
q4 25 17.5 47.5t33 39.5t43.5 27t49 10l-23 -135q-5 -32 -24.5 -58.5t-46.5 -43.5q23 -17 34.5 -44.5t5.5 -61.5l-10 -62q-5 -23 8.5 -39t36.5 -17h51zM115 359q8 49 15 92.5t12.5 76t8 51t1.5 18.5l-4 -18.5t-10 -51t-13.5 -76t-16.5 -92.5q-8 -50 -15 -93.5t-12.5 -75.5
t-8 -51t-1.5 -19t4.5 19t9.5 51t13.5 75.5t16.5 93.5zM331 120q1 0 3 10t5.5 28t7.5 41.5t9 50.5q10 54 15 92t4 38l-2.5 -10t-6 -28t-8 -41.5t-8.5 -50.5q-5 -27 -8.5 -50.5t-6 -41.5t-4 -28t-0.5 -10z" />
    <glyph glyph-name="L" unicode="L" horiz-adv-x="273" 
d="M248 41q-3 -17 -16.5 -29t-30.5 -12h-108q-26 0 -46.5 10t-34.5 26.5t-20 39t-1 48.5l80 470q4 25 17.5 47.5t33 39.5t43.5 27t49 10l-105 -621q-5 -23 9 -39.5t37 -16.5h93zM51 120q1 0 4.5 19t9.5 51t14 75.5t16 93.5q9 49 16 92.5t12 76t7.5 51l2.5 18.5
q-1 0 -5 -18.5t-10 -51t-13.5 -76t-15.5 -92.5q-9 -50 -16 -93.5t-12 -75.5t-7.5 -51z" />
    <glyph glyph-name="M" unicode="M" horiz-adv-x="779" 
d="M754 41q-2 -17 -16 -29t-31 -12h-64q-26 0 -47 10t-35 26.5t-20 39t-1 48.5l47 279q5 23 -9 39.5t-37 16.5h-30q-23 0 -42.5 -16.5t-23.5 -39.5l-48 -281q-4 -26 -17.5 -48t-33 -39t-43.5 -27t-49 -10l69 405q4 23 -10 39.5t-37 16.5h-86l-57 -337q-5 -26 -18.5 -48
t-33 -39t-43.5 -27t-49 -10l86 502h263q34 0 60 -17q31 17 65 17h139q25 0 46 -10t35.5 -26.5t20 -39.5t1.5 -48l-47 -278q-5 -23 8.5 -40t36.5 -17h51zM626 250q4 27 8 50.5t6.5 41.5t3.5 28l1 10q-1 0 -3.5 -10t-6 -28t-8 -41.5t-8.5 -50.5q-5 -27 -8.5 -50.5t-6 -41.5
t-3.5 -28l-1 -10q1 0 3.5 10t6 28t7.5 41.5t9 50.5zM97 250q4 27 8 50.5t6.5 41.5t3.5 28l1 10q-1 0 -3.5 -10t-6 -28t-8 -41.5t-8.5 -50.5q-5 -27 -8.5 -50.5t-6 -41.5t-3.5 -28l-1 -10q2 0 9 38t17 92zM361 250q4 27 8 50.5t6.5 41.5t4 28t0.5 10t-3 -10t-5.5 -28
t-8 -41.5t-8.5 -50.5q-5 -27 -8.5 -50.5t-6 -41.5t-4 -28t-0.5 -10t3 10t5.5 28t7.5 41.5t9 50.5z" />
    <glyph glyph-name="N" unicode="N" 
d="M490 41q-3 -17 -17 -29t-31 -12h-64q-26 0 -46.5 10t-34.5 26.5t-20 39t-2 48.5l48 279q4 23 -10 39.5t-37 16.5h-86l-57 -337q-5 -26 -18.5 -48t-33 -39t-43.5 -27t-49 -10l86 502h263q25 0 46 -10t35 -26.5t20 -39.5t2 -48l-48 -278q-4 -23 9 -40t36 -17h52zM97 250
q9 54 14 92t4 38l-2.5 -10t-6 -28t-8 -41.5t-8.5 -50.5q-5 -27 -8.5 -50.5t-6 -41.5t-4 -28t-0.5 -10q2 0 9 38t17 92zM361 250q4 27 8 50.5t6.5 41.5t4 28t0.5 10t-3 -10t-5.5 -28t-8 -41.5t-8.5 -50.5q-5 -27 -9 -50.5t-6.5 -41.5t-3.5 -28t0 -10l2.5 10t6 28t7.5 41.5
t9 50.5z" />
    <glyph glyph-name="O" unicode="O" horiz-adv-x="459" 
d="M318 500q25 0 46 -10t35 -26.5t19.5 -39.5t1.5 -48l-43 -252q-4 -26 -17.5 -48.5t-33 -39t-44 -26.5t-50.5 -10h-139q-26 0 -46.5 10t-34.5 26.5t-20 39t-1 48.5l42 252q4 25 18 48t33.5 39.5t43.5 26.5t50 10h140zM76 250q5 27 9 50.5t6.5 41t3.5 27.5t0 10t-3 -10
l-5.5 -27.5t-8 -41t-8.5 -50.5q-5 -27 -8.5 -50.5t-6 -41.5t-4 -28t-0.5 -10t3 10t5.5 28t7.5 41.5t9 50.5zM303 402q4 23 -10 40t-37 17h-30q-23 0 -42 -17t-24 -40l-52 -305q-4 -23 10 -39.5t37 -16.5h30q23 0 42 16.5t24 39.5zM341 250q4 27 8 50.5t6.5 41t3.5 27.5l1 10
q-1 0 -3 -10l-5.5 -27.5t-8 -41t-9.5 -50.5t-8.5 -50.5t-6 -41.5t-3.5 -28t0 -10l2.5 10t6 28t7.5 41.5t9 50.5z" />
    <glyph glyph-name="P" unicode="P" horiz-adv-x="464" 
d="M326 500q25 -2 45 -12t33.5 -26.5t19.5 -38.5t2 -47l-42 -252q-5 -26 -18.5 -48.5t-33 -39t-44 -26.5t-49.5 -10h-142l-1 -6q-4 -25 -17.5 -47.5t-33 -39.5t-43.5 -27t-49 -10l22 130l85 500h266zM308 403q4 23 -10 39.5t-37 16.5h-85l-72 -418h87q23 0 42 16.5t24 39.5z
M75 207q6 36 11 67t8.5 54.5t5.5 37t1 13.5t-4 -13.5t-7.5 -37t-10 -54.5t-11.5 -67t-11 -67t-8.5 -54.5t-5.5 -37t-1 -13.5t3.5 13.5t7 37t10.5 54.5t12 67zM346 250q5 27 9 50.5t6.5 41t3.5 27.5t0 10l-2.5 -10t-6 -27.5t-8 -41t-8.5 -50.5q-5 -27 -8.5 -50.5t-6 -41.5
t-4 -28t-0.5 -10t3 10t5.5 28t7.5 41.5t9 50.5z" />
    <glyph glyph-name="Q" unicode="Q" horiz-adv-x="460" 
d="M310 413q18 39 54.5 63.5t77.5 25.5l-86 -508q-5 -25 -18 -47.5t-32.5 -39.5t-43.5 -27t-49 -10l21 130h-141q-26 0 -46.5 10t-34.5 26.5t-20 39t-1 48.5l43 252q4 25 17.5 47t33 38.5t43 26.5t48.5 12h169q-3 -3 -3 -4q-14 -18 -22 -39t-10 -44zM301 389l2 14t1 14
q-2 16 -12 27.5t-27 13.5q-6 2 -19.5 1.5t-18.5 -0.5q-23 0 -42.5 -16.5t-23.5 -39.5l-53 -306q-4 -23 10 -39.5t37 -16.5h86zM334 207q6 36 11 67t8.5 54.5t5.5 37t1 13.5t-3.5 -13.5t-7 -37t-10.5 -54.5t-12 -67t-11 -67t-8.5 -54.5t-5 -37l-1.5 -13.5q1 0 4 13.5t7.5 37
t10 54.5t11.5 67zM77 250q4 27 8 50.5t6.5 41t3.5 27.5t0 10l-2.5 -10t-6 -27.5t-8 -41t-8.5 -50.5q-5 -27 -8.5 -50.5t-6 -41.5t-3.5 -28l-1 -10q2 0 9 38t17 92z" />
    <glyph glyph-name="R" unicode="R" horiz-adv-x="368" 
d="M393 500q-3 -17 -16.5 -29t-30.5 -12h-100q-23 0 -42 -17t-24 -40l-47 -280q-5 -26 -18.5 -48t-33 -39t-43.5 -27t-49 -10l65 378q4 25 17.5 48t33 39.5t43.5 26.5t50 10h195zM96 250q5 27 9 50.5t6.5 41t3.5 27.5t0 10l-2.5 -10t-6 -27.5t-8 -41t-8.5 -50.5
q-5 -27 -8.5 -50.5t-6 -41.5t-4 -28t-0.5 -10t3 10t5.5 28t7.5 41.5t9 50.5z" />
    <glyph glyph-name="S" unicode="S" horiz-adv-x="400" 
d="M161 326q-4 -23 9.5 -39t36.5 -17h57q25 0 46 -10t35.5 -26.5t20 -39.5t1.5 -48l-4 -22q-5 -26 -18.5 -48.5t-33 -39t-44 -26.5t-49.5 -10h-194q-17 0 -27 12t-7 29h182q23 0 41.5 16.5t22.5 39.5l13 76q4 23 -9.5 39.5t-36.5 16.5h-57q-26 0 -46.5 10t-34.5 26.5t-20 39
t-1 48.5l4 29q9 51 44 84.5t100 33.5h168q17 -1 26.5 -12.5t7.5 -28.5h-156q-23 -1 -41.5 -17.5t-22.5 -39.5zM98 296q6 37 9 60t2 23t-5.5 -23t-11.5 -60h6zM312 202q-6 -36 -9 -59t-2 -23t5.5 23t11.5 59h-6z" />
    <glyph glyph-name="T" unicode="T" horiz-adv-x="265" 
d="M290 500q-3 -17 -16.5 -29t-30.5 -12h-72l-62 -362q-4 -23 10 -39.5t37 -16.5h35q17 -1 26.5 -12.5t6.5 -28.5h-130q-26 0 -46.5 9.5t-34.5 26.5t-20 39.5t-2 48.5l86 502q25 0 45.5 -10t34.5 -27t19.5 -39.5t1.5 -47.5v-2h112zM87 307q7 39 12.5 73t9 59.5t5.5 40
l2 14.5q-1 0 -4 -14.5t-8 -40t-11 -59.5t-12 -73q-7 -39 -12.5 -73t-9.5 -59.5t-6 -40t-1 -14.5t4 14.5t7.5 40l10.5 59.5t13 73z" />
    <glyph glyph-name="U" unicode="U" horiz-adv-x="494" 
d="M469 41q-3 -17 -16.5 -29t-30.5 -12h-70q-19 0 -37 7.5t-24 27.5q-5 -14 -22 -24.5t-43 -10.5h-133q-26 0 -46.5 10t-34.5 26.5t-20 39t-1 48.5l43 254q4 25 17.5 47.5t33 39.5t43.5 27t49 10l-69 -405q-4 -23 10 -39.5t37 -16.5h30q32 0 47.5 21.5t20.5 48.5l45 267
q4 25 17.5 47.5t33 39.5t43.5 27t50 10l-69 -404q-4 -24 9.5 -40.5t37.5 -16.5h49zM76 250q5 27 9 50.5t6.5 41t3.5 27.5t0 10l-2.5 -10t-6 -27.5t-8 -41t-8.5 -50.5q-5 -27 -8.5 -50.5t-6 -41.5t-4 -28t-0.5 -10t3 10t5.5 28t7.5 41.5t9 50.5zM341 250q4 27 8 50.5t6.5 41
t4 27.5t0.5 10t-3 -10l-5.5 -27.5t-8 -41t-8.5 -50.5q-5 -27 -9 -50.5t-6.5 -41.5t-3.5 -28t0 -10l2.5 10t6 28t7.5 41.5t9 50.5z" />
    <glyph glyph-name="V" unicode="V" horiz-adv-x="486" 
d="M318 378q4 25 17.5 47.5t33 39.5t43.5 27t50 10l-65 -378q-4 -26 -17.5 -48.5t-33.5 -39t-44.5 -26.5t-49.5 -10h-263l65 378q4 25 17.5 47.5t33 39.5t43 27t49.5 10l-78 -461h86q23 0 42 16.5t24 39.5zM96 250q4 27 8 50.5t6.5 41t4 27.5t0.5 10t-3 -10l-5.5 -27.5
t-8 -41t-8.5 -50.5q-5 -27 -8.5 -50.5t-6 -41.5t-4 -28t-0.5 -10t3 10t5.5 28t7.5 41.5t9 50.5zM361 250q4 27 8 50.5t6.5 41t3.5 27.5l1 10q-1 0 -3 -10l-5.5 -27.5t-8 -41t-9.5 -50.5t-8.5 -50.5t-6 -41.5t-3.5 -28l-1 -10q2 0 9 38t17 92z" />
    <glyph glyph-name="W" unicode="W" horiz-adv-x="732" 
d="M564 378q4 25 17.5 47.5t33 39.5t43 27t49.5 10l-64 -378q-5 -26 -18.5 -48.5t-33 -39t-44 -26.5t-49.5 -10h-139q-35 0 -60 17q-32 -17 -66 -17h-139q-26 0 -46.5 10t-34.5 26.5t-20 39t-2 48.5l43 254q4 25 17.5 47.5t33 39.5t43.5 27t50 10l-69 -405q-4 -23 10 -39.5
t37 -16.5h29q23 0 42.5 16.5t23.5 39.5l48 281q4 25 17.5 47.5t33 39.5t43.5 27t49 10l-69 -405q-4 -23 10 -39.5t37 -16.5h30q23 0 42.5 16.5t23.5 39.5zM77 250q4 27 8 50.5t6.5 41t4 27.5t0.5 10t-3 -10l-5.5 -27.5t-8 -41t-8.5 -50.5q-5 -27 -9 -50.5t-6.5 -41.5
t-3.5 -28t0 -10t3 10t5.5 28t7.5 41.5t9 50.5zM342 250q4 27 8 50.5t6.5 41t3.5 27.5t0 10l-2.5 -10t-6 -27.5t-8 -41t-8.5 -50.5q-5 -27 -8.5 -50.5t-6 -41.5t-3.5 -28l-1 -10q2 0 9 38t17 92zM606 250q4 27 8 50.5t6.5 41t4 27.5t0.5 10t-3 -10l-5.5 -27.5t-8 -41
t-8.5 -50.5q-5 -27 -8.5 -50.5t-6 -41.5t-4 -28t-0.5 -10t3 10t5.5 28t7.5 41.5t9 50.5z" />
    <glyph glyph-name="X" unicode="X" horiz-adv-x="487" 
d="M168 326q-5 -23 9 -39t37 -17h31q23 1 42 17t23 39l9 52q4 25 17.5 47.5t33 39.5t43.5 27t49 10l-25 -149q-5 -32 -25 -59t-48 -44q23 -17 33 -44.5t5 -59.5l-4 -24q-5 -26 -18.5 -48.5t-33 -39t-43.5 -26.5t-49 -10l30 175q4 23 -9.5 39.5t-36.5 16.5h-31
q-23 0 -42 -16.5t-23 -39.5l-9 -51q-5 -26 -18.5 -48.5t-33 -39t-43.5 -26.5t-49 -10l26 148q5 32 25 59.5t48 44.5q-23 17 -33 44t-5 59l4 25q4 25 17.5 47.5t33 39.5t43.5 27t49 10zM116 379q-1 0 -3 -10l-5.5 -27.5t-8 -41t-9.5 -50.5t-8.5 -50.5t-6 -41.5t-3.5 -28
l-1 -10q1 0 3.5 10t6 28t7.5 41.5t9 50.5q4 27 8 50.5t6.5 41t3.5 27.5zM380 379q-1 0 -3 -10l-5.5 -27.5t-8 -41t-8.5 -50.5q-5 -27 -8.5 -50.5t-6 -41.5t-4 -28t-0.5 -10t3 10t5.5 28t7.5 41.5t9 50.5q4 27 8 50.5t6.5 41t4 27.5t0.5 10z" />
    <glyph glyph-name="Y" unicode="Y" horiz-adv-x="466" 
d="M305 378q4 25 17.5 47.5t33 39.5t43.5 27t49 10l-86 -506q-4 -26 -17.5 -48.5t-33 -39t-44 -26.5t-49.5 -10h-265q2 17 16 29t31 12h170q23 0 42 16.5t24 39.5l5 31h-141q-26 0 -46.5 9.5t-34.5 26.5t-20 39.5t-2 48.5l18 105l25 149q4 25 17.5 47.5t33 39.5t43.5 27
t50 10l-69 -405q-4 -23 10 -39.5t37 -16.5h30q23 0 42 16.5t23 39.5zM83 250q4 27 8 50.5t6.5 41t4 27.5t0.5 10t-3 -10l-5.5 -27.5t-8 -41t-8.5 -50.5q-5 -27 -9 -50.5t-6.5 -41.5t-3.5 -28t0 -10l2.5 10t6 28t7.5 41.5t9 50.5zM348 250q4 27 8 50.5t6.5 41t3.5 27.5t0 10
l-2.5 -10t-6 -27.5t-8 -41t-8.5 -50.5q-5 -27 -8.5 -50.5t-6 -41.5t-3.5 -28l-1 -10q2 0 9 38t17 92z" />
    <glyph glyph-name="Z" unicode="Z" horiz-adv-x="423" 
d="M109 97q-4 -23 10 -39.5t37 -16.5h130q17 -1 26.5 -12.5t6.5 -28.5h-225q-26 0 -46.5 10t-34.5 26.5t-20 39t-2 48.5l287 278q4 23 -9.5 40t-36.5 17h-125q-17 0 -27 12t-7 29h220q25 0 46 -10t35.5 -26.5t20 -39.5t1.5 -48zM86 147q1 0 9.5 7t22.5 20t33 30.5t40 37.5
t39.5 38t32 31.5t21 21.5t7.5 9l-8.5 -7t-23 -20t-33 -31t-39.5 -38t-40 -38t-32.5 -31.5t-21 -21.5z" />
    <glyph glyph-name="asciicircum" unicode="^" horiz-adv-x="1097" 
d="M902 487q33 9 63.5 -1t51 -32.5t28 -53.5t-5.5 -64v-1q-14 -25 -31.5 -42t-50.5 -22q-21 -2 -39.5 10t-28.5 30t-8 39t23 38q10 8 22 10t23 -1.5t20 -11t12 -19.5q2 -7 -1 -15t-8.5 -13.5t-13.5 -6.5t-17 6q6 5 7.5 12.5t-6.5 12.5q-7 5 -14 1t-10 -12.5t-1 -19t13 -17.5
q17 -12 36 -4.5t30 24.5q16 24 13.5 49t-18 43.5t-40 26t-51.5 -4.5l-17 -8q-9 23 -19.5 39t-36.5 24t-51.5 -2t-38.5 -33q19 -10 27 -25t7.5 -29.5t-9.5 -26t-24 -13.5q-12 -2 -21.5 6.5t-5.5 16.5q10 -1 14.5 4t4 12.5t-6 15t-16.5 10.5q-25 7 -46 -1.5t-34.5 -25.5
t-17 -39.5t8.5 -44.5q9 -18 27 -29t38 -13q6 36 30 53.5t51 18.5t49.5 -14.5t26.5 -45.5q3 -26 -11 -45.5t-42 -20.5q-11 0 -20.5 4.5t-16 12.5t-8 17.5t3.5 19.5q4 7 10.5 11t13 4.5t12 -3t7.5 -12.5q-7 -1 -12 -4t-3 -11q2 -6 8 -7.5t12.5 1t10.5 9.5t3 19q-2 14 -16 23.5
t-30 7.5q-15 -2 -25.5 -10t-15.5 -19t-5.5 -23.5t2.5 -23.5q-29 -2 -56 4t-49 25q-7 -25 -23.5 -43.5t-38 -28.5t-46 -11t-48.5 10q-26 -27 -59 -40t-67 -12t-66.5 15.5t-56.5 43.5l-15 22q-28 -7 -52.5 -1t-43 20t-30.5 35t-15 44.5t4 47t27 44.5q25 27 61 33q4 34 25 58
t49 34.5t59 5.5t56 -27q22 14 48 17t50 -5l144 144q10 10 24.5 14.5t30 4t30 -6t24.5 -15.5l138 -138q3 -1 11.5 -3t20 -7.5t24.5 -16t24 -28.5zM503 231q18 0 34 8t26.5 21t15 30t0.5 35q-5 12 -7.5 20t-13.5 19q-24 24 -57 22q-19 -40 -49.5 -48.5t-56 3t-37 37.5t7.5 55
q7 10 17.5 15.5t22 6t22.5 -4.5t17 -15q4 -6 4 -15t-4 -15.5t-11.5 -10t-17.5 0.5q4 6 3 14t-10 10q-8 3 -13 -3t-6 -15t4 -18t19 -13q19 -6 33.5 4.5t21.5 29t3.5 41t-21.5 40.5q-22 22 -52.5 23t-53.5 -19l-15 -13q-15 19 -30.5 31t-41.5 12q-28 0 -49 -17.5t-27 -43.5
q21 -4 33.5 -15.5t16.5 -25.5t-1 -27.5t-19 -20.5q-11 -5 -22.5 0t-10.5 14q10 2 13 8.5t0 13.5t-10.5 12t-18.5 5q-25 -1 -43 -15.5t-25.5 -34.5t-4 -42.5t21.5 -40.5q14 -14 34 -19.5t40 -0.5q-5 36 12.5 60t43 33t51.5 1t39 -35q11 -24 3.5 -47t-33.5 -33
q-11 -3 -21.5 -1.5t-19 7t-13 14.5t-2.5 20q4 15 17.5 21.5t23.5 -9.5q-6 -2 -10 -6.5t1 -11.5q3 -5 9.5 -5t11.5 4.5t7 13t-3 19.5q-5 13 -21.5 17t-30.5 -2q-29 -14 -30 -39.5t12 -49.5q15 -23 45 -37.5t59 -14.5q30 0 57 13.5t45 36.5l10 14q14 -8 26.5 -14.5t28.5 -6.5z
M700 477q11 23 30 39t43 23l-115 115q-9 9 -28 11t-29 -8l-136 -136q22 -17 34 -43t10 -55q39 -2 68 -27q12 41 46.5 63.5t76.5 17.5z" />
    <glyph glyph-name="a" unicode="a" horiz-adv-x="494" 
d="M469 41q-2 -17 -16 -29t-31 -12h-70q-19 0 -36.5 8t-23.5 28q-6 -14 -22.5 -25t-42.5 -11h-133q-26 0 -47 10t-35 26.5t-20 39t-1 48.5l43 252q4 25 17.5 48t33.5 39.5t44 26.5t50 10h263l-69 -402q-4 -23 9.5 -40t37.5 -17h49zM312 459h-86q-23 0 -42 -17t-24 -40
l-51 -305q-5 -23 9 -39.5t37 -16.5h30q23 0 42.5 16.5t23.5 39.5z" />
    <glyph glyph-name="b" unicode="b" horiz-adv-x="490" 
d="M338 500q25 0 46 -10t35 -26.5t20 -39.5t2 -48l-44 -252q-5 -26 -18 -48t-32.5 -38.5t-43 -26.5t-48.5 -11h-266l101 594q4 25 17.5 47.5t33 39.5t43.5 27t50 10l-37 -218h141zM323 403q4 23 -10 39.5t-37 16.5h-86l-71 -418h85q23 0 42.5 16.5t23.5 39.5z" />
    <glyph glyph-name="c" unicode="c" horiz-adv-x="426" 
d="M34 376q4 25 17.5 48t33.5 39.5t44 26.5t50 10h194q17 0 26.5 -12t7.5 -29h-182q-23 -1 -41.5 -17t-22.5 -39l-52 -306q-5 -23 8.5 -39t36.5 -17h181q-2 -17 -16 -29t-31 -12h-194q-26 0 -47 10t-35 26.5t-20 39t-1 48.5z" />
    <glyph glyph-name="d" unicode="d" horiz-adv-x="504" 
d="M373 98q-4 -23 9.5 -40t37.5 -17h49q-2 -17 -16 -29t-31 -12h-70q-19 0 -37 8t-24 28q-5 -14 -22 -25t-43 -11h-132q-26 0 -47 10t-35 26.5t-20 39t-1 48.5l43 252q4 25 17.5 48t33 39.5t44 26.5t50.5 10h140l16 94q4 25 17.5 47.5t33 39.5t43.5 27t50 10zM312 459h-86
q-23 0 -42 -17t-24 -40l-52 -305q-4 -23 10 -39.5t37 -16.5h30q23 0 42 16.5t24 39.5z" />
    <glyph glyph-name="e" unicode="e" horiz-adv-x="469" 
d="M318 500q25 0 46 -10t35 -26.5t19.5 -39.5t1.5 -48l-24 -146h-265l-23 -133q-4 -23 10 -39.5t37 -16.5h208q-2 -17 -16 -29t-31 -12h-222q-26 0 -47 10t-35 26.5t-20 39t-1 48.5l43 252q4 25 17.5 48t33 39.5t44 26.5t50.5 10h139zM303 403q4 23 -10 39.5t-37 16.5h-30
q-23 0 -42 -16.5t-23 -39.5l-23 -133h142z" />
    <glyph glyph-name="f" unicode="f" horiz-adv-x="352" 
d="M283 677q-23 0 -42 -17t-23 -40l-21 -120h145q-3 -17 -17 -29t-31 -12h-104l-57 -337q-5 -26 -18.5 -48t-33 -39t-43.5 -27t-49 -10l102 595q4 26 17.5 48.5t33 39.5t44 27t50.5 10h211q-3 -17 -16.5 -29t-30.5 -12h-117z" />
    <glyph glyph-name="g" unicode="g" horiz-adv-x="467" 
d="M316 413q19 39 55.5 63.5t77.5 25.5l-86 -505q-4 -26 -17.5 -48.5t-33 -39.5t-44 -26.5t-49.5 -9.5h-266q3 17 17 28.5t31 12.5h170q23 0 42 16.5t24 39.5l5 30h-141q-26 0 -46.5 10t-35 26.5t-20.5 39t-1 48.5l42 252q4 25 18 48t33.5 39.5t43.5 26.5t50 10h166l-2 -2
q-1 -1 -1 -2q-14 -18 -22 -39t-10 -44zM309 403q5 23 -9 39.5t-37 16.5h-31q-23 0 -41.5 -16.5t-23.5 -39.5l-51 -306q-4 -23 10 -39.5t37 -16.5h29q23 0 42.5 16.5t23.5 39.5l5 29z" />
    <glyph glyph-name="h" unicode="h" 
d="M392 97q-4 -23 9 -39.5t36 -16.5h52q-3 -17 -17 -29t-31 -12h-64q-26 0 -46.5 10t-34.5 26.5t-20 39t-2 48.5l48 278q4 23 -9.5 40t-36.5 17h-86q-15 -85 -29.5 -168t-28.5 -167q-4 -26 -17.5 -48.5t-33 -39t-43.5 -26.5t-49 -10l101 593q4 25 17.5 47.5t33 39.5t43.5 27
t49 10l-36 -217h140q25 0 46 -10t35 -26.5t20 -39.5t2 -48z" />
    <glyph glyph-name="i" unicode="i" horiz-adv-x="239" 
d="M199 628q-5 -26 -18 -48.5t-32.5 -39t-43.5 -26.5t-49 -10l15 89q4 25 17.5 47.5t33 39.5t43 27t49.5 10zM108 97q-4 -23 9 -39.5t36 -16.5h52q-3 -17 -17 -29t-31 -12h-64q-26 0 -46.5 10t-34.5 26.5t-20 39t-1 48.5l43 254q4 25 17.5 47.5t33 39.5t43.5 27t49 10z" />
    <glyph glyph-name="j" unicode="j" horiz-adv-x="237" 
d="M105 594q4 25 17.5 47.5t33 39.5t43 27t49.5 10l-15 -90q-4 -26 -17.5 -48t-33 -39t-43.5 -27t-49 -10zM68 378q4 25 17.5 47.5t33 39.5t43.5 27t50 10l-87 -505q-4 -26 -17.5 -48.5t-33 -39t-44 -26.5t-49.5 -10h-116q3 17 17 28.5t31 12.5h20q23 0 42 16.5t24 39.5z
" />
    <glyph glyph-name="k" unicode="k" 
d="M377 0q-26 0 -46.5 10t-34.5 26.5t-20 39t-1 48.5l11 62q4 23 -10 40t-37 17h-86l-21 -121q-4 -26 -17.5 -48t-33 -39t-43.5 -27t-49 -10l102 596q4 25 17.5 47.5t33 39.5t43 27t49.5 10l-74 -434h82q23 0 42 16.5t23 39.5l7 38q4 25 17.5 47.5t33 39.5t43.5 27t49 10
l-23 -135q-5 -32 -24.5 -58.5t-46.5 -43.5q23 -17 34.5 -44.5t5.5 -60.5l-10 -63q-5 -23 8.5 -39t36.5 -17h51q-3 -17 -16.5 -29t-30.5 -12h-65z" />
    <glyph glyph-name="l" unicode="l" horiz-adv-x="273" 
d="M248 41q-3 -17 -16.5 -29t-30.5 -12h-108q-26 0 -46.5 10t-34.5 26.5t-20 39t-1 48.5l80 470q4 25 17.5 47.5t33 39.5t43.5 27t49 10l-105 -621q-5 -23 9 -39.5t37 -16.5h93z" />
    <glyph glyph-name="m" unicode="m" horiz-adv-x="779" 
d="M74 500h263q35 0 60 -17q31 17 66 17h139q25 0 46 -10t35 -26.5t20 -39.5t2 -48l-48 -278q-4 -23 9 -40t36 -17h52q-3 -17 -17 -28.5t-31 -12.5h-64q-26 0 -46.5 10t-34.5 27t-20 39.5t-2 48.5l48 278q4 23 -10 39.5t-37 16.5h-30q-23 0 -42 -16.5t-23 -39.5l-48 -281
q-5 -26 -18.5 -48t-33 -39t-43.5 -27t-49 -10l69 405q5 23 -9 39.5t-37 16.5h-86l-58 -337q-4 -26 -17.5 -48t-33 -39t-43.5 -27t-49 -10z" />
    <glyph glyph-name="n" unicode="n" 
d="M75 500h262q26 0 47 -10t35 -26.5t19.5 -39.5t1.5 -48l-47 -278q-4 -23 9 -40t36 -17h51q-2 -17 -16 -29t-31 -12h-64q-26 0 -46.5 10t-35 26.5t-20.5 39t-1 48.5l47 279q5 23 -9 39.5t-37 16.5h-86l-58 -337q-4 -26 -17.5 -48t-33 -39t-43.5 -27t-49 -10z" />
    <glyph glyph-name="o" unicode="o" horiz-adv-x="459" 
d="M318 500q26 0 47 -10t35 -26.5t19.5 -39.5t1.5 -48l-43 -252q-4 -26 -17.5 -48.5t-33.5 -39t-44.5 -26.5t-49.5 -10h-139q-26 0 -46.5 10t-34.5 26.5t-20 39t-2 48.5l43 252q4 25 18 48t33.5 39.5t43.5 26.5t50 10h139zM304 403q4 23 -10 39.5t-37 16.5h-30
q-23 0 -42.5 -16.5t-23.5 -39.5l-52 -305q-4 -23 10 -40t37 -17h30q23 0 42 17t24 40z" />
    <glyph glyph-name="p" unicode="p" horiz-adv-x="464" 
d="M326 500q50 -3 79 -37.5t21 -86.5l-43 -252q-4 -26 -17.5 -48.5t-33 -39t-44 -26.5t-49.5 -10h-142l-1 -5q-4 -26 -17.5 -48t-33 -39t-43.5 -27t-49 -10l22 129l85 500h266zM308 403q4 23 -10 39.5t-37 16.5h-85l-72 -418h87q23 0 42 16.5t24 39.5z" />
    <glyph glyph-name="q" unicode="q" horiz-adv-x="460" 
d="M345 500q-32 -43 -35 -87q18 39 55 63.5t77 25.5l-86 -507q-4 -26 -17.5 -48t-33 -39t-43.5 -27t-49 -10l21 129h-141q-26 0 -46.5 10t-34.5 26.5t-20 39t-1 48.5l43 252q4 26 17.5 48t33 38.5t43 26t48.5 11.5h169zM108 97q-4 -23 10 -39.5t37 -16.5h86l60 348
q1 8 2.5 14.5t0.5 13.5q-2 16 -12 27.5t-27 14.5q-6 1 -19.5 0.5t-18.5 -0.5q-23 0 -42.5 -16.5t-23.5 -39.5z" />
    <glyph glyph-name="r" unicode="r" horiz-adv-x="368" 
d="M246 459q-23 0 -42 -16.5t-23 -39.5l-48 -281q-5 -26 -18.5 -48t-33 -39t-43.5 -27t-49 -10l65 378q4 25 17.5 48t33 39.5t44 26.5t50.5 10h194q-3 -17 -16.5 -29t-30.5 -12h-100z" />
    <glyph glyph-name="s" unicode="s" horiz-adv-x="400" 
d="M148 327q-4 -23 9.5 -39.5t36.5 -16.5h57q25 0 46 -10t35.5 -26.5t20 -39.5t1.5 -48l-4 -23q-4 -26 -17.5 -48.5t-33.5 -39t-44.5 -26.5t-49.5 -10h-181q-17 0 -27 12t-7 29h169q23 1 41.5 17t22.5 39l13 76q4 23 -9.5 39.5t-36.5 17.5h-57q-26 0 -46.5 9.5t-34.5 26.5
t-20 39.5t-1 48.5l4 28q9 51 44 84.5t100 33.5h161q17 0 27 -12t7 -29h-148q-23 -1 -42 -17t-23 -39l-13 -76v0z" />
    <glyph glyph-name="t" unicode="t" horiz-adv-x="273" 
d="M190 41q17 -1 26.5 -12.5t6.5 -28.5h-130q-26 0 -46.5 10t-34.5 26.5t-20 39t-1 48.5l85 502q25 0 46 -10t34.5 -27t19 -39.5t1.5 -47.5v-2h121q-3 -17 -17 -29t-31 -12h-80l-61 -362q-5 -23 9 -39.5t37 -16.5h35z" />
    <glyph glyph-name="u" unicode="u" horiz-adv-x="494" 
d="M373 98q-4 -23 9.5 -40t37.5 -17h49q-2 -17 -16 -29t-31 -12h-70q-19 0 -36.5 8t-23.5 28q-6 -14 -22.5 -25t-42.5 -11h-133q-26 0 -46.5 10t-35 26.5t-20.5 39t-1 48.5l43 254q4 25 17.5 47.5t33 39.5t43.5 27t49 10l-68 -405q-5 -23 9 -39.5t37 -16.5h30
q32 0 47.5 21.5t20.5 48.5l46 267q4 25 17.5 47.5t33 39.5t43 27t49.5 10z" />
    <glyph glyph-name="v" unicode="v" horiz-adv-x="486" 
d="M54 378q4 25 17.5 47.5t33 39.5t43 27t49.5 10l-79 -461h86q23 0 42.5 16.5t23.5 39.5l48 281q4 25 17.5 47.5t33 39.5t43.5 27t49 10l-64 -378q-4 -26 -17.5 -48.5t-33.5 -39t-44.5 -26.5t-49.5 -10h-263z" />
    <glyph glyph-name="w" unicode="w" horiz-adv-x="732" 
d="M643 124q-5 -26 -18.5 -48.5t-33 -39t-44 -26.5t-49.5 -10h-139q-35 0 -60 17q-31 -17 -66 -17h-139q-26 0 -46.5 10t-34.5 26.5t-20 39t-2 48.5l44 254q4 25 17.5 47.5t33 39.5t43 27t49.5 10l-69 -405q-4 -23 10 -39.5t37 -16.5h30q23 0 42 16.5t23 39.5l48 281
q4 25 17.5 47.5t33 39.5t43.5 27t50 10l-69 -405q-5 -23 9 -39.5t37 -16.5h30q23 0 42.5 16.5t23.5 39.5l48 281q4 25 17.5 47.5t33 39.5t43 27t49.5 10z" />
    <glyph glyph-name="x" unicode="x" horiz-adv-x="487" 
d="M167 327q-4 -23 9.5 -39.5t36.5 -17.5h31q23 1 42 17.5t23 39.5l9 51q4 25 17.5 47.5t33 39.5t43.5 27t50 10l-26 -149q-5 -32 -25 -59t-48 -44q23 -17 33 -44.5t5 -59.5l-4 -24q-5 -26 -18 -48t-32.5 -39t-43.5 -27t-49 -10l29 175q4 23 -9.5 39.5t-36.5 16.5h-31
q-23 0 -42 -16.5t-23 -39.5l-9 -51q-4 -26 -17.5 -48t-33 -39t-43.5 -27t-49 -10l25 148q5 32 25 59.5t48 44.5q-22 17 -32.5 44t-5.5 59l4 25q4 25 17.5 47.5t33 39.5t43.5 27t50 10l-30 -175v0z" />
    <glyph glyph-name="y" unicode="y" horiz-adv-x="466" 
d="M100 0q-26 0 -46.5 10t-34.5 26.5t-20 39t-2 48.5l18 105l26 149q4 25 17.5 47.5t33 39.5t43 27t49.5 10l-69 -405q-4 -23 10 -39.5t37 -16.5h30q23 0 42 16.5t23 39.5l48 281q4 25 17.5 47.5t33 39.5t43.5 27t49 10l-86 -505q-4 -26 -17.5 -48.5t-33 -39.5t-44 -27
t-49.5 -10h-265q3 17 16.5 29t30.5 12h170q23 0 42 17t24 40l5 30h-141z" />
    <glyph glyph-name="z" unicode="z" horiz-adv-x="423" 
d="M107 459q-17 0 -27 12t-7 29h220q26 0 47 -10t35 -26.5t19.5 -39.5t1.5 -48l-287 -279q-4 -23 9.5 -39.5t36.5 -16.5h166q-3 -17 -17 -29t-31 -12h-179q-26 0 -46.5 10t-34.5 26.5t-20 39t-2 48.5l287 279q4 23 -9.5 39.5t-36.5 16.5h-125z" />
  </font>
</defs>
</svg>
